solid CATIA STL
  facet normal  0.000000e+000  0.000000e+000 -1.000000e+000
    outer loop
      vertex -3.061467e+000 -7.391036e+000  0.000000e+000
      vertex -5.656854e+000 -5.656854e+000  0.000000e+000
      vertex -1.469528e-015 -8.000000e+000  0.000000e+000
    endloop
  endfacet
  facet normal  -0.000000e+000  0.000000e+000 -1.000000e+000
    outer loop
      vertex  5.656854e+000 -5.656854e+000  0.000000e+000
      vertex  3.061467e+000 -7.391036e+000  0.000000e+000
      vertex -1.469528e-015 -8.000000e+000  0.000000e+000
    endloop
  endfacet
  facet normal  0.000000e+000  0.000000e+000 -1.000000e+000
    outer loop
      vertex  8.000000e+000  0.000000e+000  0.000000e+000
      vertex  7.391036e+000 -3.061467e+000  0.000000e+000
      vertex  2.400000e+000 -9.000000e-001  0.000000e+000
    endloop
  endfacet
  facet normal  0.000000e+000  0.000000e+000 -1.000000e+000
    outer loop
      vertex  8.000000e+000  0.000000e+000  0.000000e+000
      vertex  2.400000e+000 -9.000000e-001  0.000000e+000
      vertex  2.400000e+000  9.000000e-001  0.000000e+000
    endloop
  endfacet
  facet normal  0.000000e+000  0.000000e+000 -1.000000e+000
    outer loop
      vertex  8.000000e+000  0.000000e+000  0.000000e+000
      vertex  2.400000e+000  9.000000e-001  0.000000e+000
      vertex  9.000000e-001  1.500000e+000  0.000000e+000
    endloop
  endfacet
  facet normal  0.000000e+000  0.000000e+000 -1.000000e+000
    outer loop
      vertex  8.000000e+000  0.000000e+000  0.000000e+000
      vertex  9.000000e-001  1.500000e+000  0.000000e+000
      vertex  9.000000e-001  2.400000e+000  0.000000e+000
    endloop
  endfacet
  facet normal  0.000000e+000  0.000000e+000 -1.000000e+000
    outer loop
      vertex  8.000000e+000  0.000000e+000  0.000000e+000
      vertex  9.000000e-001  2.400000e+000  0.000000e+000
      vertex  7.391036e+000  3.061467e+000  0.000000e+000
    endloop
  endfacet
  facet normal  0.000000e+000  -0.000000e+000 -1.000000e+000
    outer loop
      vertex -8.000000e+000  9.796851e-016  0.000000e+000
      vertex -7.391036e+000  3.061467e+000  0.000000e+000
      vertex -9.000000e-001  2.400000e+000  0.000000e+000
    endloop
  endfacet
  facet normal  0.000000e+000  -0.000000e+000 -1.000000e+000
    outer loop
      vertex -8.000000e+000  9.796851e-016  0.000000e+000
      vertex -9.000000e-001  2.400000e+000  0.000000e+000
      vertex -9.000000e-001  1.500000e+000  0.000000e+000
    endloop
  endfacet
  facet normal  0.000000e+000  0.000000e+000 -1.000000e+000
    outer loop
      vertex -8.000000e+000  9.796851e-016  0.000000e+000
      vertex -9.000000e-001  1.500000e+000  0.000000e+000
      vertex -2.400000e+000  9.000000e-001  0.000000e+000
    endloop
  endfacet
  facet normal  0.000000e+000  -0.000000e+000 -1.000000e+000
    outer loop
      vertex -8.000000e+000  9.796851e-016  0.000000e+000
      vertex -2.400000e+000  9.000000e-001  0.000000e+000
      vertex -2.400000e+000 -9.000000e-001  0.000000e+000
    endloop
  endfacet
  facet normal  0.000000e+000  0.000000e+000 -1.000000e+000
    outer loop
      vertex -7.391036e+000 -3.061467e+000  0.000000e+000
      vertex -8.000000e+000  9.796851e-016  0.000000e+000
      vertex -2.400000e+000 -9.000000e-001  0.000000e+000
    endloop
  endfacet
  facet normal  0.000000e+000  -0.000000e+000 -1.000000e+000
    outer loop
      vertex -7.391036e+000 -3.061467e+000  0.000000e+000
      vertex -2.400000e+000 -9.000000e-001  0.000000e+000
      vertex -1.500000e+000 -9.000000e-001  0.000000e+000
    endloop
  endfacet
  facet normal  0.000000e+000  -0.000000e+000 -1.000000e+000
    outer loop
      vertex -7.391036e+000 -3.061467e+000  0.000000e+000
      vertex -1.500000e+000 -9.000000e-001  0.000000e+000
      vertex -1.075736e+000 -1.075736e+000  0.000000e+000
    endloop
  endfacet
  facet normal  0.000000e+000  -0.000000e+000 -1.000000e+000
    outer loop
      vertex -7.391036e+000 -3.061467e+000  0.000000e+000
      vertex -1.075736e+000 -1.075736e+000  0.000000e+000
      vertex -9.000000e-001 -1.500000e+000  0.000000e+000
    endloop
  endfacet
  facet normal  0.000000e+000  -0.000000e+000 -1.000000e+000
    outer loop
      vertex -7.391036e+000 -3.061467e+000  0.000000e+000
      vertex -9.000000e-001 -1.500000e+000  0.000000e+000
      vertex -9.000000e-001 -2.400000e+000  0.000000e+000
    endloop
  endfacet
  facet normal  0.000000e+000  0.000000e+000 -1.000000e+000
    outer loop
      vertex -7.391036e+000 -3.061467e+000  0.000000e+000
      vertex -9.000000e-001 -2.400000e+000  0.000000e+000
      vertex -5.656854e+000 -5.656854e+000  0.000000e+000
    endloop
  endfacet
  facet normal  0.000000e+000  0.000000e+000 -1.000000e+000
    outer loop
      vertex  7.391036e+000 -3.061467e+000  0.000000e+000
      vertex  9.000000e-001 -2.400000e+000  0.000000e+000
      vertex  9.000000e-001 -1.500000e+000  0.000000e+000
    endloop
  endfacet
  facet normal  0.000000e+000  0.000000e+000 -1.000000e+000
    outer loop
      vertex  7.391036e+000 -3.061467e+000  0.000000e+000
      vertex  9.000000e-001 -1.500000e+000  0.000000e+000
      vertex  1.075736e+000 -1.075736e+000  0.000000e+000
    endloop
  endfacet
  facet normal  0.000000e+000  0.000000e+000 -1.000000e+000
    outer loop
      vertex  7.391036e+000 -3.061467e+000  0.000000e+000
      vertex  1.075736e+000 -1.075736e+000  0.000000e+000
      vertex  1.500000e+000 -9.000000e-001  0.000000e+000
    endloop
  endfacet
  facet normal  0.000000e+000  0.000000e+000 -1.000000e+000
    outer loop
      vertex  7.391036e+000 -3.061467e+000  0.000000e+000
      vertex  1.500000e+000 -9.000000e-001  0.000000e+000
      vertex  2.400000e+000 -9.000000e-001  0.000000e+000
    endloop
  endfacet
  facet normal  0.000000e+000  0.000000e+000 -1.000000e+000
    outer loop
      vertex  5.656854e+000 -5.656854e+000  0.000000e+000
      vertex -1.469528e-015 -8.000000e+000  0.000000e+000
      vertex  7.391036e+000 -3.061467e+000  0.000000e+000
    endloop
  endfacet
  facet normal  -0.000000e+000  0.000000e+000 -1.000000e+000
    outer loop
      vertex  7.391036e+000 -3.061467e+000  0.000000e+000
      vertex -1.469528e-015 -8.000000e+000  0.000000e+000
      vertex  9.000000e-001 -2.400000e+000  0.000000e+000
    endloop
  endfacet
  facet normal  0.000000e+000  0.000000e+000 -1.000000e+000
    outer loop
      vertex -1.469528e-015 -8.000000e+000  0.000000e+000
      vertex -5.656854e+000 -5.656854e+000  0.000000e+000
      vertex  9.000000e-001 -2.400000e+000  0.000000e+000
    endloop
  endfacet
  facet normal  -0.000000e+000  0.000000e+000 -1.000000e+000
    outer loop
      vertex  9.000000e-001 -2.400000e+000  0.000000e+000
      vertex -5.656854e+000 -5.656854e+000  0.000000e+000
      vertex -9.000000e-001 -2.400000e+000  0.000000e+000
    endloop
  endfacet
  facet normal  0.000000e+000  0.000000e+000 -9.999999e-001
    outer loop
      vertex -5.656854e+000  5.656854e+000  0.000000e+000
      vertex -3.061467e+000  7.391036e+000  0.000000e+000
      vertex -7.391036e+000  3.061467e+000  0.000000e+000
    endloop
  endfacet
  facet normal  0.000000e+000  0.000000e+000 -1.000000e+000
    outer loop
      vertex -7.391036e+000  3.061467e+000  0.000000e+000
      vertex -3.061467e+000  7.391036e+000  0.000000e+000
      vertex  4.898425e-016  8.000000e+000  0.000000e+000
    endloop
  endfacet
  facet normal  0.000000e+000  0.000000e+000 -1.000000e+000
    outer loop
      vertex -7.391036e+000  3.061467e+000  0.000000e+000
      vertex  4.898425e-016  8.000000e+000  0.000000e+000
      vertex -9.000000e-001  2.400000e+000  0.000000e+000
    endloop
  endfacet
  facet normal  0.000000e+000  0.000000e+000 -9.999999e-001
    outer loop
      vertex -9.000000e-001  2.400000e+000  0.000000e+000
      vertex  4.898425e-016  8.000000e+000  0.000000e+000
      vertex  3.061467e+000  7.391036e+000  0.000000e+000
    endloop
  endfacet
  facet normal  0.000000e+000  0.000000e+000 -1.000000e+000
    outer loop
      vertex -9.000000e-001  2.400000e+000  0.000000e+000
      vertex  3.061467e+000  7.391036e+000  0.000000e+000
      vertex  9.000000e-001  2.400000e+000  0.000000e+000
    endloop
  endfacet
  facet normal  0.000000e+000  0.000000e+000 -1.000000e+000
    outer loop
      vertex  9.000000e-001  2.400000e+000  0.000000e+000
      vertex  3.061467e+000  7.391036e+000  0.000000e+000
      vertex  5.656854e+000  5.656854e+000  0.000000e+000
    endloop
  endfacet
  facet normal  0.000000e+000  -0.000000e+000 -1.000000e+000
    outer loop
      vertex  9.000000e-001  2.400000e+000  0.000000e+000
      vertex  5.656854e+000  5.656854e+000  0.000000e+000
      vertex  7.391036e+000  3.061467e+000  0.000000e+000
    endloop
  endfacet
  facet normal  0.000000e+000  0.000000e+000 -1.000000e+000
    outer loop
      vertex -2.400000e+000  9.000000e-001  0.000000e+000
      vertex -9.000000e-001  1.500000e+000  0.000000e+000
      vertex -1.500000e+000  9.000000e-001  0.000000e+000
    endloop
  endfacet
  facet normal  0.000000e+000  0.000000e+000 -1.000000e+000
    outer loop
      vertex -1.500000e+000  9.000000e-001  0.000000e+000
      vertex -9.000000e-001  1.500000e+000  0.000000e+000
      vertex -1.075736e+000  1.075736e+000  0.000000e+000
    endloop
  endfacet
  facet normal  0.000000e+000  0.000000e+000 -1.000000e+000
    outer loop
      vertex  1.075736e+000  1.075736e+000  0.000000e+000
      vertex  9.000000e-001  1.500000e+000  0.000000e+000
      vertex  1.500000e+000  9.000000e-001  0.000000e+000
    endloop
  endfacet
  facet normal  0.000000e+000  0.000000e+000 -1.000000e+000
    outer loop
      vertex  1.500000e+000  9.000000e-001  0.000000e+000
      vertex  9.000000e-001  1.500000e+000  0.000000e+000
      vertex  2.400000e+000  9.000000e-001  0.000000e+000
    endloop
  endfacet
  facet normal  0.000000e+000  1.000000e+000  0.000000e+000
    outer loop
      vertex -9.000000e-001 -2.400000e+000  0.000000e+000
      vertex -9.000000e-001 -2.400000e+000  7.000000e+000
      vertex  9.000000e-001 -2.400000e+000  0.000000e+000
    endloop
  endfacet
  facet normal  0.000000e+000  1.000000e+000  -0.000000e+000
    outer loop
      vertex  9.000000e-001 -2.400000e+000  0.000000e+000
      vertex -9.000000e-001 -2.400000e+000  7.000000e+000
      vertex  9.000000e-001 -2.400000e+000  7.000000e+000
    endloop
  endfacet
  facet normal -1.000000e+000  0.000000e+000  0.000000e+000
    outer loop
      vertex  9.000000e-001 -2.400000e+000  0.000000e+000
      vertex  9.000000e-001 -2.400000e+000  7.000000e+000
      vertex  9.000000e-001 -1.500000e+000  0.000000e+000
    endloop
  endfacet
  facet normal -1.000000e+000  0.000000e+000  0.000000e+000
    outer loop
      vertex  9.000000e-001 -1.500000e+000  0.000000e+000
      vertex  9.000000e-001 -2.400000e+000  7.000000e+000
      vertex  9.000000e-001 -1.500000e+000  7.000000e+000
    endloop
  endfacet
  facet normal -3.826835e-001  9.238796e-001  0.000000e+000
    outer loop
      vertex  1.500000e+000 -9.000000e-001  7.000000e+000
      vertex  1.500000e+000 -9.000000e-001  0.000000e+000
      vertex  1.075736e+000 -1.075736e+000  7.000000e+000
    endloop
  endfacet
  facet normal -3.826835e-001  9.238796e-001  0.000000e+000
    outer loop
      vertex  1.075736e+000 -1.075736e+000  7.000000e+000
      vertex  1.500000e+000 -9.000000e-001  0.000000e+000
      vertex  1.075736e+000 -1.075736e+000  0.000000e+000
    endloop
  endfacet
  facet normal -9.238796e-001  3.826835e-001  0.000000e+000
    outer loop
      vertex  1.075736e+000 -1.075736e+000  7.000000e+000
      vertex  1.075736e+000 -1.075736e+000  0.000000e+000
      vertex  9.000000e-001 -1.500000e+000  7.000000e+000
    endloop
  endfacet
  facet normal -9.238796e-001  3.826835e-001  0.000000e+000
    outer loop
      vertex  9.000000e-001 -1.500000e+000  7.000000e+000
      vertex  1.075736e+000 -1.075736e+000  0.000000e+000
      vertex  9.000000e-001 -1.500000e+000  0.000000e+000
    endloop
  endfacet
  facet normal  0.000000e+000  1.000000e+000  0.000000e+000
    outer loop
      vertex  1.500000e+000 -9.000000e-001  0.000000e+000
      vertex  1.500000e+000 -9.000000e-001  7.000000e+000
      vertex  2.400000e+000 -9.000000e-001  0.000000e+000
    endloop
  endfacet
  facet normal  0.000000e+000  1.000000e+000  -0.000000e+000
    outer loop
      vertex  2.400000e+000 -9.000000e-001  0.000000e+000
      vertex  1.500000e+000 -9.000000e-001  7.000000e+000
      vertex  2.400000e+000 -9.000000e-001  7.000000e+000
    endloop
  endfacet
  facet normal -1.000000e+000  0.000000e+000  0.000000e+000
    outer loop
      vertex  2.400000e+000 -9.000000e-001  0.000000e+000
      vertex  2.400000e+000 -9.000000e-001  7.000000e+000
      vertex  2.400000e+000  9.000000e-001  0.000000e+000
    endloop
  endfacet
  facet normal -1.000000e+000  0.000000e+000  0.000000e+000
    outer loop
      vertex  2.400000e+000  9.000000e-001  0.000000e+000
      vertex  2.400000e+000 -9.000000e-001  7.000000e+000
      vertex  2.400000e+000  9.000000e-001  7.000000e+000
    endloop
  endfacet
  facet normal  0.000000e+000 -1.000000e+000  -0.000000e+000
    outer loop
      vertex  2.400000e+000  9.000000e-001  0.000000e+000
      vertex  2.400000e+000  9.000000e-001  7.000000e+000
      vertex  1.500000e+000  9.000000e-001  0.000000e+000
    endloop
  endfacet
  facet normal  0.000000e+000 -1.000000e+000  0.000000e+000
    outer loop
      vertex  1.500000e+000  9.000000e-001  0.000000e+000
      vertex  2.400000e+000  9.000000e-001  7.000000e+000
      vertex  1.500000e+000  9.000000e-001  7.000000e+000
    endloop
  endfacet
  facet normal -9.238796e-001 -3.826835e-001  0.000000e+000
    outer loop
      vertex  9.000000e-001  1.500000e+000  7.000000e+000
      vertex  9.000000e-001  1.500000e+000  0.000000e+000
      vertex  1.075736e+000  1.075736e+000  7.000000e+000
    endloop
  endfacet
  facet normal -9.238796e-001 -3.826835e-001  -0.000000e+000
    outer loop
      vertex  1.075736e+000  1.075736e+000  7.000000e+000
      vertex  9.000000e-001  1.500000e+000  0.000000e+000
      vertex  1.075736e+000  1.075736e+000  0.000000e+000
    endloop
  endfacet
  facet normal -3.826835e-001 -9.238796e-001  0.000000e+000
    outer loop
      vertex  1.075736e+000  1.075736e+000  7.000000e+000
      vertex  1.075736e+000  1.075736e+000  0.000000e+000
      vertex  1.500000e+000  9.000000e-001  7.000000e+000
    endloop
  endfacet
  facet normal -3.826835e-001 -9.238796e-001  -0.000000e+000
    outer loop
      vertex  1.500000e+000  9.000000e-001  7.000000e+000
      vertex  1.075736e+000  1.075736e+000  0.000000e+000
      vertex  1.500000e+000  9.000000e-001  0.000000e+000
    endloop
  endfacet
  facet normal -1.000000e+000  0.000000e+000  0.000000e+000
    outer loop
      vertex  9.000000e-001  1.500000e+000  0.000000e+000
      vertex  9.000000e-001  1.500000e+000  7.000000e+000
      vertex  9.000000e-001  2.400000e+000  0.000000e+000
    endloop
  endfacet
  facet normal -1.000000e+000  0.000000e+000  0.000000e+000
    outer loop
      vertex  9.000000e-001  2.400000e+000  0.000000e+000
      vertex  9.000000e-001  1.500000e+000  7.000000e+000
      vertex  9.000000e-001  2.400000e+000  7.000000e+000
    endloop
  endfacet
  facet normal  0.000000e+000 -1.000000e+000  -0.000000e+000
    outer loop
      vertex  9.000000e-001  2.400000e+000  0.000000e+000
      vertex  9.000000e-001  2.400000e+000  7.000000e+000
      vertex -9.000000e-001  2.400000e+000  0.000000e+000
    endloop
  endfacet
  facet normal  0.000000e+000 -1.000000e+000  0.000000e+000
    outer loop
      vertex -9.000000e-001  2.400000e+000  0.000000e+000
      vertex  9.000000e-001  2.400000e+000  7.000000e+000
      vertex -9.000000e-001  2.400000e+000  7.000000e+000
    endloop
  endfacet
  facet normal  1.000000e+000  0.000000e+000  0.000000e+000
    outer loop
      vertex -9.000000e-001  2.400000e+000  0.000000e+000
      vertex -9.000000e-001  2.400000e+000  7.000000e+000
      vertex -9.000000e-001  1.500000e+000  0.000000e+000
    endloop
  endfacet
  facet normal  1.000000e+000  0.000000e+000  0.000000e+000
    outer loop
      vertex -9.000000e-001  1.500000e+000  0.000000e+000
      vertex -9.000000e-001  2.400000e+000  7.000000e+000
      vertex -9.000000e-001  1.500000e+000  7.000000e+000
    endloop
  endfacet
  facet normal  3.826835e-001 -9.238796e-001  0.000000e+000
    outer loop
      vertex -1.500000e+000  9.000000e-001  7.000000e+000
      vertex -1.500000e+000  9.000000e-001  0.000000e+000
      vertex -1.075736e+000  1.075736e+000  7.000000e+000
    endloop
  endfacet
  facet normal  3.826835e-001 -9.238796e-001  0.000000e+000
    outer loop
      vertex -1.075736e+000  1.075736e+000  7.000000e+000
      vertex -1.500000e+000  9.000000e-001  0.000000e+000
      vertex -1.075736e+000  1.075736e+000  0.000000e+000
    endloop
  endfacet
  facet normal  9.238796e-001 -3.826835e-001  0.000000e+000
    outer loop
      vertex -1.075736e+000  1.075736e+000  7.000000e+000
      vertex -1.075736e+000  1.075736e+000  0.000000e+000
      vertex -9.000000e-001  1.500000e+000  7.000000e+000
    endloop
  endfacet
  facet normal  9.238796e-001 -3.826835e-001  0.000000e+000
    outer loop
      vertex -9.000000e-001  1.500000e+000  7.000000e+000
      vertex -1.075736e+000  1.075736e+000  0.000000e+000
      vertex -9.000000e-001  1.500000e+000  0.000000e+000
    endloop
  endfacet
  facet normal  0.000000e+000 -1.000000e+000  -0.000000e+000
    outer loop
      vertex -1.500000e+000  9.000000e-001  0.000000e+000
      vertex -1.500000e+000  9.000000e-001  7.000000e+000
      vertex -2.400000e+000  9.000000e-001  0.000000e+000
    endloop
  endfacet
  facet normal  0.000000e+000 -1.000000e+000  0.000000e+000
    outer loop
      vertex -2.400000e+000  9.000000e-001  0.000000e+000
      vertex -1.500000e+000  9.000000e-001  7.000000e+000
      vertex -2.400000e+000  9.000000e-001  7.000000e+000
    endloop
  endfacet
  facet normal  1.000000e+000  0.000000e+000  0.000000e+000
    outer loop
      vertex -2.400000e+000  9.000000e-001  0.000000e+000
      vertex -2.400000e+000  9.000000e-001  7.000000e+000
      vertex -2.400000e+000 -9.000000e-001  0.000000e+000
    endloop
  endfacet
  facet normal  1.000000e+000  0.000000e+000  0.000000e+000
    outer loop
      vertex -2.400000e+000 -9.000000e-001  0.000000e+000
      vertex -2.400000e+000  9.000000e-001  7.000000e+000
      vertex -2.400000e+000 -9.000000e-001  7.000000e+000
    endloop
  endfacet
  facet normal  0.000000e+000  1.000000e+000  0.000000e+000
    outer loop
      vertex -2.400000e+000 -9.000000e-001  0.000000e+000
      vertex -2.400000e+000 -9.000000e-001  7.000000e+000
      vertex -1.500000e+000 -9.000000e-001  0.000000e+000
    endloop
  endfacet
  facet normal  0.000000e+000  1.000000e+000  -0.000000e+000
    outer loop
      vertex -1.500000e+000 -9.000000e-001  0.000000e+000
      vertex -2.400000e+000 -9.000000e-001  7.000000e+000
      vertex -1.500000e+000 -9.000000e-001  7.000000e+000
    endloop
  endfacet
  facet normal  9.238796e-001  3.826835e-001  -0.000000e+000
    outer loop
      vertex -9.000000e-001 -1.500000e+000  7.000000e+000
      vertex -9.000000e-001 -1.500000e+000  0.000000e+000
      vertex -1.075736e+000 -1.075736e+000  7.000000e+000
    endloop
  endfacet
  facet normal  9.238796e-001  3.826835e-001  0.000000e+000
    outer loop
      vertex -1.075736e+000 -1.075736e+000  7.000000e+000
      vertex -9.000000e-001 -1.500000e+000  0.000000e+000
      vertex -1.075736e+000 -1.075736e+000  0.000000e+000
    endloop
  endfacet
  facet normal  3.826835e-001  9.238796e-001  -0.000000e+000
    outer loop
      vertex -1.075736e+000 -1.075736e+000  7.000000e+000
      vertex -1.075736e+000 -1.075736e+000  0.000000e+000
      vertex -1.500000e+000 -9.000000e-001  7.000000e+000
    endloop
  endfacet
  facet normal  3.826835e-001  9.238796e-001  0.000000e+000
    outer loop
      vertex -1.500000e+000 -9.000000e-001  7.000000e+000
      vertex -1.075736e+000 -1.075736e+000  0.000000e+000
      vertex -1.500000e+000 -9.000000e-001  0.000000e+000
    endloop
  endfacet
  facet normal  1.000000e+000  0.000000e+000  0.000000e+000
    outer loop
      vertex -9.000000e-001 -1.500000e+000  0.000000e+000
      vertex -9.000000e-001 -1.500000e+000  7.000000e+000
      vertex -9.000000e-001 -2.400000e+000  0.000000e+000
    endloop
  endfacet
  facet normal  1.000000e+000  0.000000e+000  0.000000e+000
    outer loop
      vertex -9.000000e-001 -2.400000e+000  0.000000e+000
      vertex -9.000000e-001 -1.500000e+000  7.000000e+000
      vertex -9.000000e-001 -2.400000e+000  7.000000e+000
    endloop
  endfacet
  facet normal  0.000000e+000  0.000000e+000 -9.999999e-001
    outer loop
      vertex  2.400000e+000 -9.000000e-001  7.000000e+000
      vertex -2.400000e+000  9.000000e-001  7.000000e+000
      vertex -1.500000e+000  9.000000e-001  7.000000e+000
    endloop
  endfacet
  facet normal  0.000000e+000  0.000000e+000 -1.000000e+000
    outer loop
      vertex  2.400000e+000 -9.000000e-001  7.000000e+000
      vertex -1.500000e+000  9.000000e-001  7.000000e+000
      vertex  1.500000e+000  9.000000e-001  7.000000e+000
    endloop
  endfacet
  facet normal  0.000000e+000  0.000000e+000 -9.999999e-001
    outer loop
      vertex  2.400000e+000 -9.000000e-001  7.000000e+000
      vertex  1.500000e+000  9.000000e-001  7.000000e+000
      vertex  2.400000e+000  9.000000e-001  7.000000e+000
    endloop
  endfacet
  facet normal  0.000000e+000  0.000000e+000 -9.999999e-001
    outer loop
      vertex -2.400000e+000  9.000000e-001  7.000000e+000
      vertex  2.400000e+000 -9.000000e-001  7.000000e+000
      vertex  1.500000e+000 -9.000000e-001  7.000000e+000
    endloop
  endfacet
  facet normal  0.000000e+000  0.000000e+000 -1.000000e+000
    outer loop
      vertex -2.400000e+000  9.000000e-001  7.000000e+000
      vertex  1.500000e+000 -9.000000e-001  7.000000e+000
      vertex -1.500000e+000 -9.000000e-001  7.000000e+000
    endloop
  endfacet
  facet normal  0.000000e+000  0.000000e+000 -9.999999e-001
    outer loop
      vertex -2.400000e+000  9.000000e-001  7.000000e+000
      vertex -1.500000e+000 -9.000000e-001  7.000000e+000
      vertex -2.400000e+000 -9.000000e-001  7.000000e+000
    endloop
  endfacet
  facet normal  0.000000e+000  0.000000e+000 -9.999999e-001
    outer loop
      vertex  9.000000e-001 -2.400000e+000  7.000000e+000
      vertex -9.000000e-001 -2.400000e+000  7.000000e+000
      vertex  9.000000e-001 -1.500000e+000  7.000000e+000
    endloop
  endfacet
  facet normal  -0.000000e+000  0.000000e+000 -9.999999e-001
    outer loop
      vertex  9.000000e-001 -1.500000e+000  7.000000e+000
      vertex -9.000000e-001 -2.400000e+000  7.000000e+000
      vertex -9.000000e-001 -1.500000e+000  7.000000e+000
    endloop
  endfacet
  facet normal  0.000000e+000  0.000000e+000 -9.999999e-001
    outer loop
      vertex  9.000000e-001 -1.500000e+000  7.000000e+000
      vertex -9.000000e-001 -1.500000e+000  7.000000e+000
      vertex  1.075736e+000 -1.075736e+000  7.000000e+000
    endloop
  endfacet
  facet normal  -0.000000e+000  0.000000e+000 -1.000000e+000
    outer loop
      vertex  1.075736e+000 -1.075736e+000  7.000000e+000
      vertex -9.000000e-001 -1.500000e+000  7.000000e+000
      vertex -1.075736e+000 -1.075736e+000  7.000000e+000
    endloop
  endfacet
  facet normal  0.000000e+000  0.000000e+000 -1.000000e+000
    outer loop
      vertex  1.075736e+000 -1.075736e+000  7.000000e+000
      vertex -1.075736e+000 -1.075736e+000  7.000000e+000
      vertex  1.500000e+000 -9.000000e-001  7.000000e+000
    endloop
  endfacet
  facet normal  -0.000000e+000  0.000000e+000 -1.000000e+000
    outer loop
      vertex  1.500000e+000 -9.000000e-001  7.000000e+000
      vertex -1.075736e+000 -1.075736e+000  7.000000e+000
      vertex -1.500000e+000 -9.000000e-001  7.000000e+000
    endloop
  endfacet
  facet normal  0.000000e+000  0.000000e+000 -1.000000e+000
    outer loop
      vertex  1.500000e+000  9.000000e-001  7.000000e+000
      vertex -1.500000e+000  9.000000e-001  7.000000e+000
      vertex  1.075736e+000  1.075736e+000  7.000000e+000
    endloop
  endfacet
  facet normal  -0.000000e+000  0.000000e+000 -1.000000e+000
    outer loop
      vertex  1.075736e+000  1.075736e+000  7.000000e+000
      vertex -1.500000e+000  9.000000e-001  7.000000e+000
      vertex -1.075736e+000  1.075736e+000  7.000000e+000
    endloop
  endfacet
  facet normal  0.000000e+000  0.000000e+000 -1.000000e+000
    outer loop
      vertex  1.075736e+000  1.075736e+000  7.000000e+000
      vertex -1.075736e+000  1.075736e+000  7.000000e+000
      vertex  9.000000e-001  1.500000e+000  7.000000e+000
    endloop
  endfacet
  facet normal  -0.000000e+000  0.000000e+000 -9.999999e-001
    outer loop
      vertex  9.000000e-001  1.500000e+000  7.000000e+000
      vertex -1.075736e+000  1.075736e+000  7.000000e+000
      vertex -9.000000e-001  1.500000e+000  7.000000e+000
    endloop
  endfacet
  facet normal  0.000000e+000  0.000000e+000 -9.999999e-001
    outer loop
      vertex  9.000000e-001  1.500000e+000  7.000000e+000
      vertex -9.000000e-001  1.500000e+000  7.000000e+000
      vertex  9.000000e-001  2.400000e+000  7.000000e+000
    endloop
  endfacet
  facet normal  -0.000000e+000  0.000000e+000 -9.999999e-001
    outer loop
      vertex  9.000000e-001  2.400000e+000  7.000000e+000
      vertex -9.000000e-001  1.500000e+000  7.000000e+000
      vertex -9.000000e-001  2.400000e+000  7.000000e+000
    endloop
  endfacet
  facet normal  0.000000e+000  -0.000000e+000  1.000000e+000
    outer loop
      vertex  0.000000e+000  1.500000e+000  1.600000e+001
      vertex  1.322876e+000  1.500000e+000  1.600000e+001
      vertex  7.391036e+000  3.061467e+000  1.600000e+001
    endloop
  endfacet
  facet normal  0.000000e+000  0.000000e+000  1.000000e+000
    outer loop
      vertex  0.000000e+000  1.500000e+000  1.600000e+001
      vertex  7.391036e+000  3.061467e+000  1.600000e+001
      vertex  5.656854e+000  5.656854e+000  1.600000e+001
    endloop
  endfacet
  facet normal  0.000000e+000  0.000000e+000  1.000000e+000
    outer loop
      vertex  0.000000e+000  1.500000e+000  1.600000e+001
      vertex  5.656854e+000  5.656854e+000  1.600000e+001
      vertex  3.061467e+000  7.391036e+000  1.600000e+001
    endloop
  endfacet
  facet normal  0.000000e+000  0.000000e+000  1.000000e+000
    outer loop
      vertex  0.000000e+000  1.500000e+000  1.600000e+001
      vertex  3.061467e+000  7.391036e+000  1.600000e+001
      vertex  4.898425e-016  8.000000e+000  1.600000e+001
    endloop
  endfacet
  facet normal  0.000000e+000  0.000000e+000  1.000000e+000
    outer loop
      vertex  0.000000e+000  1.500000e+000  1.600000e+001
      vertex  4.898425e-016  8.000000e+000  1.600000e+001
      vertex -3.061467e+000  7.391036e+000  1.600000e+001
    endloop
  endfacet
  facet normal  0.000000e+000  0.000000e+000  1.000000e+000
    outer loop
      vertex  0.000000e+000  1.500000e+000  1.600000e+001
      vertex -3.061467e+000  7.391036e+000  1.600000e+001
      vertex -5.656854e+000  5.656854e+000  1.600000e+001
    endloop
  endfacet
  facet normal  0.000000e+000  0.000000e+000  1.000000e+000
    outer loop
      vertex  0.000000e+000  1.500000e+000  1.600000e+001
      vertex -5.656854e+000  5.656854e+000  1.600000e+001
      vertex -7.391036e+000  3.061467e+000  1.600000e+001
    endloop
  endfacet
  facet normal  0.000000e+000  0.000000e+000  1.000000e+000
    outer loop
      vertex  0.000000e+000  1.500000e+000  1.600000e+001
      vertex -7.391036e+000  3.061467e+000  1.600000e+001
      vertex -1.322876e+000  1.500000e+000  1.600000e+001
    endloop
  endfacet
  facet normal  0.000000e+000  0.000000e+000  1.000000e+000
    outer loop
      vertex  3.061467e+000 -7.391036e+000  1.600000e+001
      vertex  5.656854e+000 -5.656854e+000  1.600000e+001
      vertex -1.469528e-015 -8.000000e+000  1.600000e+001
    endloop
  endfacet
  facet normal  0.000000e+000  0.000000e+000  1.000000e+000
    outer loop
      vertex -1.469528e-015 -8.000000e+000  1.600000e+001
      vertex  5.656854e+000 -5.656854e+000  1.600000e+001
      vertex  7.391036e+000 -3.061467e+000  1.600000e+001
    endloop
  endfacet
  facet normal  0.000000e+000  0.000000e+000  1.000000e+000
    outer loop
      vertex -1.469528e-015 -8.000000e+000  1.600000e+001
      vertex  7.391036e+000 -3.061467e+000  1.600000e+001
      vertex -6.774307e-001 -1.881778e+000  1.600000e+001
    endloop
  endfacet
  facet normal  -0.000000e+000  0.000000e+000  1.000000e+000
    outer loop
      vertex -6.774307e-001 -1.881778e+000  1.600000e+001
      vertex  7.391036e+000 -3.061467e+000  1.600000e+001
      vertex  6.774307e-001 -1.881778e+000  1.600000e+001
    endloop
  endfacet
  facet normal  0.000000e+000  0.000000e+000  9.999999e-001
    outer loop
      vertex -1.469528e-015 -8.000000e+000  1.600000e+001
      vertex -6.774307e-001 -1.881778e+000  1.600000e+001
      vertex -7.391036e+000 -3.061467e+000  1.600000e+001
    endloop
  endfacet
  facet normal  0.000000e+000  0.000000e+000  1.000000e+000
    outer loop
      vertex -7.391036e+000 -3.061467e+000  1.600000e+001
      vertex -6.774307e-001 -1.881778e+000  1.600000e+001
      vertex -1.721411e+000 -1.018207e+000  1.600000e+001
    endloop
  endfacet
  facet normal  0.000000e+000  0.000000e+000  1.000000e+000
    outer loop
      vertex -7.391036e+000 -3.061467e+000  1.600000e+001
      vertex -1.721411e+000 -1.018207e+000  1.600000e+001
      vertex -8.000000e+000  9.796851e-016  1.600000e+001
    endloop
  endfacet
  facet normal  -0.000000e+000  0.000000e+000  1.000000e+000
    outer loop
      vertex -8.000000e+000  9.796851e-016  1.600000e+001
      vertex -1.721411e+000 -1.018207e+000  1.600000e+001
      vertex -1.975414e+000  3.126320e-001  1.600000e+001
    endloop
  endfacet
  facet normal  0.000000e+000  0.000000e+000  1.000000e+000
    outer loop
      vertex -8.000000e+000  9.796851e-016  1.600000e+001
      vertex -1.975414e+000  3.126320e-001  1.600000e+001
      vertex -7.391036e+000  3.061467e+000  1.600000e+001
    endloop
  endfacet
  facet normal  0.000000e+000  0.000000e+000  1.000000e+000
    outer loop
      vertex -7.391036e+000  3.061467e+000  1.600000e+001
      vertex -1.975414e+000  3.126320e-001  1.600000e+001
      vertex -1.322876e+000  1.500000e+000  1.600000e+001
    endloop
  endfacet
  facet normal  0.000000e+000  0.000000e+000  9.999999e-001
    outer loop
      vertex -5.656854e+000 -5.656854e+000  1.600000e+001
      vertex -3.061467e+000 -7.391036e+000  1.600000e+001
      vertex -7.391036e+000 -3.061467e+000  1.600000e+001
    endloop
  endfacet
  facet normal  0.000000e+000  0.000000e+000  1.000000e+000
    outer loop
      vertex -7.391036e+000 -3.061467e+000  1.600000e+001
      vertex -3.061467e+000 -7.391036e+000  1.600000e+001
      vertex -1.469528e-015 -8.000000e+000  1.600000e+001
    endloop
  endfacet
  facet normal  -0.000000e+000  0.000000e+000  9.999999e-001
    outer loop
      vertex  7.391036e+000  3.061467e+000  1.600000e+001
      vertex  1.322876e+000  1.500000e+000  1.600000e+001
      vertex  8.000000e+000  0.000000e+000  1.600000e+001
    endloop
  endfacet
  facet normal  0.000000e+000  0.000000e+000  1.000000e+000
    outer loop
      vertex  8.000000e+000  0.000000e+000  1.600000e+001
      vertex  1.322876e+000  1.500000e+000  1.600000e+001
      vertex  1.975414e+000  3.126320e-001  1.600000e+001
    endloop
  endfacet
  facet normal  0.000000e+000  0.000000e+000  1.000000e+000
    outer loop
      vertex  8.000000e+000  0.000000e+000  1.600000e+001
      vertex  1.975414e+000  3.126320e-001  1.600000e+001
      vertex  7.391036e+000 -3.061467e+000  1.600000e+001
    endloop
  endfacet
  facet normal  0.000000e+000  0.000000e+000  1.000000e+000
    outer loop
      vertex  7.391036e+000 -3.061467e+000  1.600000e+001
      vertex  1.975414e+000  3.126320e-001  1.600000e+001
      vertex  1.721411e+000 -1.018207e+000  1.600000e+001
    endloop
  endfacet
  facet normal  0.000000e+000  0.000000e+000  9.999999e-001
    outer loop
      vertex  7.391036e+000 -3.061467e+000  1.600000e+001
      vertex  1.721411e+000 -1.018207e+000  1.600000e+001
      vertex  6.774307e-001 -1.881778e+000  1.600000e+001
    endloop
  endfacet
  facet normal -6.373870e-001  7.705438e-001  0.000000e+000
    outer loop
      vertex  6.774307e-001 -1.881778e+000  9.000000e+000
      vertex  1.721411e+000 -1.018207e+000  1.600000e+001
      vertex  1.721411e+000 -1.018207e+000  9.000000e+000
    endloop
  endfacet
  facet normal -9.822693e-001  1.874756e-001  0.000000e+000
    outer loop
      vertex  1.721411e+000 -1.018207e+000  9.000000e+000
      vertex  1.721411e+000 -1.018207e+000  1.600000e+001
      vertex  1.975414e+000  3.126320e-001  1.600000e+001
    endloop
  endfacet
  facet normal -9.822693e-001  1.874756e-001  0.000000e+000
    outer loop
      vertex  1.721411e+000 -1.018207e+000  9.000000e+000
      vertex  1.975414e+000  3.126320e-001  1.600000e+001
      vertex  1.975414e+000  3.126320e-001  9.000000e+000
    endloop
  endfacet
  facet normal -8.763760e-001 -4.816275e-001  0.000000e+000
    outer loop
      vertex  1.975414e+000  3.126320e-001  9.000000e+000
      vertex  1.975414e+000  3.126320e-001  1.600000e+001
      vertex  1.322876e+000  1.500000e+000  1.600000e+001
    endloop
  endfacet
  facet normal -8.763760e-001 -4.816275e-001  -0.000000e+000
    outer loop
      vertex  1.975414e+000  3.126320e-001  9.000000e+000
      vertex  1.322876e+000  1.500000e+000  1.600000e+001
      vertex  1.322876e+000  1.500000e+000  9.000000e+000
    endloop
  endfacet
  facet normal -6.373870e-001  7.705438e-001  0.000000e+000
    outer loop
      vertex  1.721411e+000 -1.018207e+000  1.600000e+001
      vertex  6.774307e-001 -1.881778e+000  9.000000e+000
      vertex  6.774307e-001 -1.881778e+000  1.600000e+001
    endloop
  endfacet
  facet normal  0.000000e+000  9.999999e-001  0.000000e+000
    outer loop
      vertex  6.774307e-001 -1.881778e+000  1.600000e+001
      vertex  6.774307e-001 -1.881778e+000  9.000000e+000
      vertex -6.774307e-001 -1.881778e+000  9.000000e+000
    endloop
  endfacet
  facet normal  0.000000e+000  9.999999e-001  0.000000e+000
    outer loop
      vertex  6.774307e-001 -1.881778e+000  1.600000e+001
      vertex -6.774307e-001 -1.881778e+000  9.000000e+000
      vertex -6.774307e-001 -1.881778e+000  1.600000e+001
    endloop
  endfacet
  facet normal  6.373870e-001  7.705438e-001  0.000000e+000
    outer loop
      vertex -6.774307e-001 -1.881778e+000  1.600000e+001
      vertex -6.774307e-001 -1.881778e+000  9.000000e+000
      vertex -1.721411e+000 -1.018207e+000  9.000000e+000
    endloop
  endfacet
  facet normal  6.373870e-001  7.705438e-001  -0.000000e+000
    outer loop
      vertex -6.774307e-001 -1.881778e+000  1.600000e+001
      vertex -1.721411e+000 -1.018207e+000  9.000000e+000
      vertex -1.721411e+000 -1.018207e+000  1.600000e+001
    endloop
  endfacet
  facet normal  9.822693e-001  1.874756e-001  0.000000e+000
    outer loop
      vertex -1.721411e+000 -1.018207e+000  1.600000e+001
      vertex -1.721411e+000 -1.018207e+000  9.000000e+000
      vertex -1.975414e+000  3.126320e-001  9.000000e+000
    endloop
  endfacet
  facet normal  9.822693e-001  1.874756e-001  -0.000000e+000
    outer loop
      vertex -1.721411e+000 -1.018207e+000  1.600000e+001
      vertex -1.975414e+000  3.126320e-001  9.000000e+000
      vertex -1.975414e+000  3.126320e-001  1.600000e+001
    endloop
  endfacet
  facet normal  8.763760e-001 -4.816275e-001  0.000000e+000
    outer loop
      vertex -1.975414e+000  3.126320e-001  1.600000e+001
      vertex -1.975414e+000  3.126320e-001  9.000000e+000
      vertex -1.322876e+000  1.500000e+000  9.000000e+000
    endloop
  endfacet
  facet normal  8.763760e-001 -4.816275e-001  0.000000e+000
    outer loop
      vertex -1.975414e+000  3.126320e-001  1.600000e+001
      vertex -1.322876e+000  1.500000e+000  9.000000e+000
      vertex -1.322876e+000  1.500000e+000  1.600000e+001
    endloop
  endfacet
  facet normal  0.000000e+000 -1.000000e+000  -0.000000e+000
    outer loop
      vertex  1.322876e+000  1.500000e+000  9.000000e+000
      vertex  1.322876e+000  1.500000e+000  1.600000e+001
      vertex  0.000000e+000  1.500000e+000  9.000000e+000
    endloop
  endfacet
  facet normal  0.000000e+000 -1.000000e+000  0.000000e+000
    outer loop
      vertex  0.000000e+000  1.500000e+000  9.000000e+000
      vertex  1.322876e+000  1.500000e+000  1.600000e+001
      vertex -1.322876e+000  1.500000e+000  9.000000e+000
    endloop
  endfacet
  facet normal  0.000000e+000 -1.000000e+000  0.000000e+000
    outer loop
      vertex -1.322876e+000  1.500000e+000  9.000000e+000
      vertex  1.322876e+000  1.500000e+000  1.600000e+001
      vertex  0.000000e+000  1.500000e+000  1.600000e+001
    endloop
  endfacet
  facet normal  -0.000000e+000 -1.000000e+000  0.000000e+000
    outer loop
      vertex -1.322876e+000  1.500000e+000  9.000000e+000
      vertex  0.000000e+000  1.500000e+000  1.600000e+001
      vertex -1.322876e+000  1.500000e+000  1.600000e+001
    endloop
  endfacet
  facet normal  0.000000e+000  0.000000e+000  1.000000e+000
    outer loop
      vertex -1.322876e+000  1.500000e+000  9.000000e+000
      vertex -1.975414e+000  3.126320e-001  9.000000e+000
      vertex  0.000000e+000  1.500000e+000  9.000000e+000
    endloop
  endfacet
  facet normal  -0.000000e+000  0.000000e+000  1.000000e+000
    outer loop
      vertex  1.322876e+000  1.500000e+000  9.000000e+000
      vertex  0.000000e+000  1.500000e+000  9.000000e+000
      vertex  1.975414e+000  3.126320e-001  9.000000e+000
    endloop
  endfacet
  facet normal  0.000000e+000  0.000000e+000  1.000000e+000
    outer loop
      vertex  1.975414e+000  3.126320e-001  9.000000e+000
      vertex  0.000000e+000  1.500000e+000  9.000000e+000
      vertex -1.975414e+000  3.126320e-001  9.000000e+000
    endloop
  endfacet
  facet normal  -0.000000e+000  0.000000e+000  1.000000e+000
    outer loop
      vertex  1.975414e+000  3.126320e-001  9.000000e+000
      vertex -1.975414e+000  3.126320e-001  9.000000e+000
      vertex  1.721411e+000 -1.018207e+000  9.000000e+000
    endloop
  endfacet
  facet normal  0.000000e+000  0.000000e+000  1.000000e+000
    outer loop
      vertex  1.721411e+000 -1.018207e+000  9.000000e+000
      vertex -1.975414e+000  3.126320e-001  9.000000e+000
      vertex -1.721411e+000 -1.018207e+000  9.000000e+000
    endloop
  endfacet
  facet normal  -0.000000e+000  0.000000e+000  1.000000e+000
    outer loop
      vertex  1.721411e+000 -1.018207e+000  9.000000e+000
      vertex -1.721411e+000 -1.018207e+000  9.000000e+000
      vertex  6.774307e-001 -1.881778e+000  9.000000e+000
    endloop
  endfacet
  facet normal  0.000000e+000  0.000000e+000  1.000000e+000
    outer loop
      vertex  6.774307e-001 -1.881778e+000  9.000000e+000
      vertex -1.721411e+000 -1.018207e+000  9.000000e+000
      vertex -6.774307e-001 -1.881778e+000  9.000000e+000
    endloop
  endfacet
  facet normal  9.807852e-001 -1.950904e-001  0.000000e+000
    outer loop
      vertex  8.000000e+000  0.000000e+000  0.000000e+000
      vertex  8.000000e+000  0.000000e+000  1.600000e+001
      vertex  7.391036e+000 -3.061467e+000  0.000000e+000
    endloop
  endfacet
  facet normal  9.807852e-001 -1.950904e-001  0.000000e+000
    outer loop
      vertex  7.391036e+000 -3.061467e+000  0.000000e+000
      vertex  8.000000e+000  0.000000e+000  1.600000e+001
      vertex  7.391036e+000 -3.061467e+000  1.600000e+001
    endloop
  endfacet
  facet normal  8.314697e-001 -5.555702e-001  0.000000e+000
    outer loop
      vertex  7.391036e+000 -3.061467e+000  0.000000e+000
      vertex  7.391036e+000 -3.061467e+000  1.600000e+001
      vertex  5.656854e+000 -5.656854e+000  0.000000e+000
    endloop
  endfacet
  facet normal  8.314697e-001 -5.555702e-001  0.000000e+000
    outer loop
      vertex  5.656854e+000 -5.656854e+000  0.000000e+000
      vertex  7.391036e+000 -3.061467e+000  1.600000e+001
      vertex  5.656854e+000 -5.656854e+000  1.600000e+001
    endloop
  endfacet
  facet normal  5.555702e-001 -8.314697e-001  0.000000e+000
    outer loop
      vertex  5.656854e+000 -5.656854e+000  0.000000e+000
      vertex  5.656854e+000 -5.656854e+000  1.600000e+001
      vertex  3.061467e+000 -7.391036e+000  0.000000e+000
    endloop
  endfacet
  facet normal  5.555702e-001 -8.314697e-001  0.000000e+000
    outer loop
      vertex  3.061467e+000 -7.391036e+000  0.000000e+000
      vertex  5.656854e+000 -5.656854e+000  1.600000e+001
      vertex  3.061467e+000 -7.391036e+000  1.600000e+001
    endloop
  endfacet
  facet normal  1.950904e-001 -9.807852e-001  0.000000e+000
    outer loop
      vertex  3.061467e+000 -7.391036e+000  0.000000e+000
      vertex  3.061467e+000 -7.391036e+000  1.600000e+001
      vertex -1.469528e-015 -8.000000e+000  0.000000e+000
    endloop
  endfacet
  facet normal  1.950904e-001 -9.807852e-001  0.000000e+000
    outer loop
      vertex -1.469528e-015 -8.000000e+000  0.000000e+000
      vertex  3.061467e+000 -7.391036e+000  1.600000e+001
      vertex -1.469528e-015 -8.000000e+000  1.600000e+001
    endloop
  endfacet
  facet normal -1.950904e-001 -9.807852e-001  -0.000000e+000
    outer loop
      vertex -1.469528e-015 -8.000000e+000  0.000000e+000
      vertex -1.469528e-015 -8.000000e+000  1.600000e+001
      vertex -3.061467e+000 -7.391036e+000  0.000000e+000
    endloop
  endfacet
  facet normal -1.950904e-001 -9.807852e-001  0.000000e+000
    outer loop
      vertex -3.061467e+000 -7.391036e+000  0.000000e+000
      vertex -1.469528e-015 -8.000000e+000  1.600000e+001
      vertex -3.061467e+000 -7.391036e+000  1.600000e+001
    endloop
  endfacet
  facet normal -5.555702e-001 -8.314697e-001  -0.000000e+000
    outer loop
      vertex -3.061467e+000 -7.391036e+000  0.000000e+000
      vertex -3.061467e+000 -7.391036e+000  1.600000e+001
      vertex -5.656854e+000 -5.656854e+000  0.000000e+000
    endloop
  endfacet
  facet normal -5.555702e-001 -8.314697e-001  0.000000e+000
    outer loop
      vertex -5.656854e+000 -5.656854e+000  0.000000e+000
      vertex -3.061467e+000 -7.391036e+000  1.600000e+001
      vertex -5.656854e+000 -5.656854e+000  1.600000e+001
    endloop
  endfacet
  facet normal -8.314697e-001 -5.555702e-001  -0.000000e+000
    outer loop
      vertex -5.656854e+000 -5.656854e+000  0.000000e+000
      vertex -5.656854e+000 -5.656854e+000  1.600000e+001
      vertex -7.391036e+000 -3.061467e+000  0.000000e+000
    endloop
  endfacet
  facet normal -8.314697e-001 -5.555702e-001  0.000000e+000
    outer loop
      vertex -7.391036e+000 -3.061467e+000  0.000000e+000
      vertex -5.656854e+000 -5.656854e+000  1.600000e+001
      vertex -7.391036e+000 -3.061467e+000  1.600000e+001
    endloop
  endfacet
  facet normal -9.807852e-001 -1.950904e-001  -0.000000e+000
    outer loop
      vertex -7.391036e+000 -3.061467e+000  0.000000e+000
      vertex -7.391036e+000 -3.061467e+000  1.600000e+001
      vertex -8.000000e+000  9.796851e-016  0.000000e+000
    endloop
  endfacet
  facet normal -9.807852e-001 -1.950904e-001  0.000000e+000
    outer loop
      vertex -8.000000e+000  9.796851e-016  0.000000e+000
      vertex -7.391036e+000 -3.061467e+000  1.600000e+001
      vertex -8.000000e+000  9.796851e-016  1.600000e+001
    endloop
  endfacet
  facet normal -9.807852e-001  1.950904e-001  0.000000e+000
    outer loop
      vertex -8.000000e+000  9.796851e-016  0.000000e+000
      vertex -8.000000e+000  9.796851e-016  1.600000e+001
      vertex -7.391036e+000  3.061467e+000  0.000000e+000
    endloop
  endfacet
  facet normal -9.807852e-001  1.950904e-001  0.000000e+000
    outer loop
      vertex -7.391036e+000  3.061467e+000  0.000000e+000
      vertex -8.000000e+000  9.796851e-016  1.600000e+001
      vertex -7.391036e+000  3.061467e+000  1.600000e+001
    endloop
  endfacet
  facet normal -8.314697e-001  5.555702e-001  0.000000e+000
    outer loop
      vertex -7.391036e+000  3.061467e+000  0.000000e+000
      vertex -7.391036e+000  3.061467e+000  1.600000e+001
      vertex -5.656854e+000  5.656854e+000  0.000000e+000
    endloop
  endfacet
  facet normal -8.314697e-001  5.555702e-001  0.000000e+000
    outer loop
      vertex -5.656854e+000  5.656854e+000  0.000000e+000
      vertex -7.391036e+000  3.061467e+000  1.600000e+001
      vertex -5.656854e+000  5.656854e+000  1.600000e+001
    endloop
  endfacet
  facet normal -5.555702e-001  8.314697e-001  0.000000e+000
    outer loop
      vertex -5.656854e+000  5.656854e+000  0.000000e+000
      vertex -5.656854e+000  5.656854e+000  1.600000e+001
      vertex -3.061467e+000  7.391036e+000  0.000000e+000
    endloop
  endfacet
  facet normal -5.555702e-001  8.314697e-001  0.000000e+000
    outer loop
      vertex -3.061467e+000  7.391036e+000  0.000000e+000
      vertex -5.656854e+000  5.656854e+000  1.600000e+001
      vertex -3.061467e+000  7.391036e+000  1.600000e+001
    endloop
  endfacet
  facet normal -1.950904e-001  9.807852e-001  0.000000e+000
    outer loop
      vertex -3.061467e+000  7.391036e+000  0.000000e+000
      vertex -3.061467e+000  7.391036e+000  1.600000e+001
      vertex  4.898425e-016  8.000000e+000  0.000000e+000
    endloop
  endfacet
  facet normal -1.950904e-001  9.807852e-001  0.000000e+000
    outer loop
      vertex  4.898425e-016  8.000000e+000  0.000000e+000
      vertex -3.061467e+000  7.391036e+000  1.600000e+001
      vertex  4.898425e-016  8.000000e+000  1.600000e+001
    endloop
  endfacet
  facet normal  1.950904e-001  9.807852e-001  0.000000e+000
    outer loop
      vertex  4.898425e-016  8.000000e+000  0.000000e+000
      vertex  4.898425e-016  8.000000e+000  1.600000e+001
      vertex  3.061467e+000  7.391036e+000  0.000000e+000
    endloop
  endfacet
  facet normal  1.950904e-001  9.807852e-001  -0.000000e+000
    outer loop
      vertex  3.061467e+000  7.391036e+000  0.000000e+000
      vertex  4.898425e-016  8.000000e+000  1.600000e+001
      vertex  3.061467e+000  7.391036e+000  1.600000e+001
    endloop
  endfacet
  facet normal  5.555702e-001  8.314697e-001  0.000000e+000
    outer loop
      vertex  3.061467e+000  7.391036e+000  0.000000e+000
      vertex  3.061467e+000  7.391036e+000  1.600000e+001
      vertex  5.656854e+000  5.656854e+000  0.000000e+000
    endloop
  endfacet
  facet normal  5.555702e-001  8.314697e-001  -0.000000e+000
    outer loop
      vertex  5.656854e+000  5.656854e+000  0.000000e+000
      vertex  3.061467e+000  7.391036e+000  1.600000e+001
      vertex  5.656854e+000  5.656854e+000  1.600000e+001
    endloop
  endfacet
  facet normal  8.314697e-001  5.555702e-001  0.000000e+000
    outer loop
      vertex  5.656854e+000  5.656854e+000  0.000000e+000
      vertex  5.656854e+000  5.656854e+000  1.600000e+001
      vertex  7.391036e+000  3.061467e+000  0.000000e+000
    endloop
  endfacet
  facet normal  8.314697e-001  5.555702e-001  -0.000000e+000
    outer loop
      vertex  7.391036e+000  3.061467e+000  0.000000e+000
      vertex  5.656854e+000  5.656854e+000  1.600000e+001
      vertex  7.391036e+000  3.061467e+000  1.600000e+001
    endloop
  endfacet
  facet normal  9.807852e-001  1.950904e-001  0.000000e+000
    outer loop
      vertex  7.391036e+000  3.061467e+000  0.000000e+000
      vertex  7.391036e+000  3.061467e+000  1.600000e+001
      vertex  8.000000e+000  0.000000e+000  0.000000e+000
    endloop
  endfacet
  facet normal  9.807852e-001  1.950904e-001  -0.000000e+000
    outer loop
      vertex  8.000000e+000  0.000000e+000  0.000000e+000
      vertex  7.391036e+000  3.061467e+000  1.600000e+001
      vertex  8.000000e+000  0.000000e+000  1.600000e+001
    endloop
  endfacet
endsolid CATIA STL
