solid CATIA STL
  facet normal  0.000000e+000  0.000000e+000  1.000000e+000
    outer loop
      vertex -4.223093e-001 -7.060676e+000  4.200000e+001
      vertex  7.191383e-001 -7.183626e+000  4.200000e+001
      vertex -1.158814e+000 -3.566462e+000  4.200000e+001
    endloop
  endfacet
  facet normal  0.000000e+000  0.000000e+000  1.000000e+000
    outer loop
      vertex  3.033814e+000  2.204195e+000  4.200000e+001
      vertex  4.223093e-001  7.060676e+000  4.200000e+001
      vertex  1.158814e+000  3.566462e+000  4.200000e+001
    endloop
  endfacet
  facet normal  -0.000000e+000  0.000000e+000  9.999999e-001
    outer loop
      vertex  1.403617e+001  1.150000e+001  4.200000e+001
      vertex -4.223093e-001  9.939324e+000  4.200000e+001
      vertex  7.191383e-001  9.816374e+000  4.200000e+001
    endloop
  endfacet
  facet normal  -0.000000e+000  0.000000e+000  1.000000e+000
    outer loop
      vertex  1.403617e+001  1.150000e+001  4.200000e+001
      vertex  7.191383e-001  9.816374e+000  4.200000e+001
      vertex  1.439324e+000  8.922309e+000  4.200000e+001
    endloop
  endfacet
  facet normal  -0.000000e+000  0.000000e+000  9.999999e-001
    outer loop
      vertex  1.403617e+001  1.150000e+001  4.200000e+001
      vertex  1.439324e+000  8.922309e+000  4.200000e+001
      vertex  1.403617e+001 -1.250000e+001  4.200000e+001
    endloop
  endfacet
  facet normal  0.000000e+000  0.000000e+000  9.999999e-001
    outer loop
      vertex -1.396383e+001  1.150000e+001  4.200000e+001
      vertex -1.396383e+001 -1.250000e+001  4.200000e+001
      vertex -1.316374e+000  9.219138e+000  4.200000e+001
    endloop
  endfacet
  facet normal  0.000000e+000  -0.000000e+000  1.000000e+000
    outer loop
      vertex -1.396383e+001  1.150000e+001  4.200000e+001
      vertex -1.316374e+000  9.219138e+000  4.200000e+001
      vertex -4.223093e-001  9.939324e+000  4.200000e+001
    endloop
  endfacet
  facet normal  0.000000e+000  -0.000000e+000  1.000000e+000
    outer loop
      vertex -1.396383e+001  1.150000e+001  4.200000e+001
      vertex -4.223093e-001  9.939324e+000  4.200000e+001
      vertex  1.403617e+001  1.150000e+001  4.200000e+001
    endloop
  endfacet
  facet normal  0.000000e+000  -0.000000e+000  9.999999e-001
    outer loop
      vertex -2.046383e+001 -1.450000e+001  4.200000e+001
      vertex  2.053617e+001 -1.450000e+001  4.200000e+001
      vertex  2.053617e+001 -1.250000e+001  4.200000e+001
    endloop
  endfacet
  facet normal  0.000000e+000  0.000000e+000  1.000000e+000
    outer loop
      vertex -2.046383e+001 -1.450000e+001  4.200000e+001
      vertex  2.053617e+001 -1.250000e+001  4.200000e+001
      vertex  1.403617e+001 -1.250000e+001  4.200000e+001
    endloop
  endfacet
  facet normal  0.000000e+000  0.000000e+000  9.999999e-001
    outer loop
      vertex -2.046383e+001 -1.450000e+001  4.200000e+001
      vertex  1.403617e+001 -1.250000e+001  4.200000e+001
      vertex  4.223093e-001 -9.939324e+000  4.200000e+001
    endloop
  endfacet
  facet normal  0.000000e+000  0.000000e+000  1.000000e+000
    outer loop
      vertex -2.046383e+001 -1.450000e+001  4.200000e+001
      vertex  4.223093e-001 -9.939324e+000  4.200000e+001
      vertex -7.191383e-001 -9.816374e+000  4.200000e+001
    endloop
  endfacet
  facet normal  0.000000e+000  0.000000e+000  1.000000e+000
    outer loop
      vertex -2.046383e+001 -1.450000e+001  4.200000e+001
      vertex -7.191383e-001 -9.816374e+000  4.200000e+001
      vertex -1.396383e+001 -1.250000e+001  4.200000e+001
    endloop
  endfacet
  facet normal  0.000000e+000  0.000000e+000  1.000000e+000
    outer loop
      vertex -2.046383e+001 -1.450000e+001  4.200000e+001
      vertex -1.396383e+001 -1.250000e+001  4.200000e+001
      vertex -2.046383e+001 -1.250000e+001  4.200000e+001
    endloop
  endfacet
  facet normal  0.000000e+000  0.000000e+000  1.000000e+000
    outer loop
      vertex -1.396383e+001 -1.250000e+001  4.200000e+001
      vertex -7.191383e-001 -9.816374e+000  4.200000e+001
      vertex -1.439324e+000 -8.922309e+000  4.200000e+001
    endloop
  endfacet
  facet normal  0.000000e+000  -0.000000e+000  1.000000e+000
    outer loop
      vertex -1.396383e+001 -1.250000e+001  4.200000e+001
      vertex -1.439324e+000 -8.922309e+000  4.200000e+001
      vertex -1.316374e+000 -7.780862e+000  4.200000e+001
    endloop
  endfacet
  facet normal  0.000000e+000  -0.000000e+000  1.000000e+000
    outer loop
      vertex -1.396383e+001 -1.250000e+001  4.200000e+001
      vertex -1.316374e+000 -7.780862e+000  4.200000e+001
      vertex -4.223093e-001 -7.060676e+000  4.200000e+001
    endloop
  endfacet
  facet normal  0.000000e+000  0.000000e+000  1.000000e+000
    outer loop
      vertex -1.396383e+001 -1.250000e+001  4.200000e+001
      vertex -4.223093e-001 -7.060676e+000  4.200000e+001
      vertex -1.158814e+000 -3.566462e+000  4.200000e+001
    endloop
  endfacet
  facet normal  0.000000e+000  0.000000e+000  1.000000e+000
    outer loop
      vertex -1.396383e+001 -1.250000e+001  4.200000e+001
      vertex -1.158814e+000 -3.566462e+000  4.200000e+001
      vertex -3.033814e+000 -2.204195e+000  4.200000e+001
    endloop
  endfacet
  facet normal  0.000000e+000  0.000000e+000  1.000000e+000
    outer loop
      vertex -1.396383e+001 -1.250000e+001  4.200000e+001
      vertex -3.033814e+000 -2.204195e+000  4.200000e+001
      vertex -3.750000e+000  2.124562e-015  4.200000e+001
    endloop
  endfacet
  facet normal  0.000000e+000  -0.000000e+000  1.000000e+000
    outer loop
      vertex -1.396383e+001 -1.250000e+001  4.200000e+001
      vertex -3.750000e+000  2.124562e-015  4.200000e+001
      vertex -3.033814e+000  2.204195e+000  4.200000e+001
    endloop
  endfacet
  facet normal  0.000000e+000  -0.000000e+000  1.000000e+000
    outer loop
      vertex -1.396383e+001 -1.250000e+001  4.200000e+001
      vertex -3.033814e+000  2.204195e+000  4.200000e+001
      vertex -7.191383e-001  7.183626e+000  4.200000e+001
    endloop
  endfacet
  facet normal  0.000000e+000  0.000000e+000  1.000000e+000
    outer loop
      vertex -1.396383e+001 -1.250000e+001  4.200000e+001
      vertex -7.191383e-001  7.183626e+000  4.200000e+001
      vertex -1.439324e+000  8.077691e+000  4.200000e+001
    endloop
  endfacet
  facet normal  0.000000e+000  -0.000000e+000  1.000000e+000
    outer loop
      vertex -1.396383e+001 -1.250000e+001  4.200000e+001
      vertex -1.439324e+000  8.077691e+000  4.200000e+001
      vertex -1.316374e+000  9.219138e+000  4.200000e+001
    endloop
  endfacet
  facet normal  0.000000e+000  0.000000e+000  1.000000e+000
    outer loop
      vertex  1.403617e+001 -1.250000e+001  4.200000e+001
      vertex  1.439324e+000  8.922309e+000  4.200000e+001
      vertex  1.316374e+000  7.780862e+000  4.200000e+001
    endloop
  endfacet
  facet normal  0.000000e+000  0.000000e+000  1.000000e+000
    outer loop
      vertex  1.403617e+001 -1.250000e+001  4.200000e+001
      vertex  1.316374e+000  7.780862e+000  4.200000e+001
      vertex  4.223093e-001  7.060676e+000  4.200000e+001
    endloop
  endfacet
  facet normal  0.000000e+000  0.000000e+000  9.999999e-001
    outer loop
      vertex  1.403617e+001 -1.250000e+001  4.200000e+001
      vertex  4.223093e-001  7.060676e+000  4.200000e+001
      vertex  3.033814e+000  2.204195e+000  4.200000e+001
    endloop
  endfacet
  facet normal  0.000000e+000  0.000000e+000  1.000000e+000
    outer loop
      vertex  1.403617e+001 -1.250000e+001  4.200000e+001
      vertex  3.033814e+000  2.204195e+000  4.200000e+001
      vertex  3.750000e+000  0.000000e+000  4.200000e+001
    endloop
  endfacet
  facet normal  0.000000e+000  0.000000e+000  9.999999e-001
    outer loop
      vertex  1.403617e+001 -1.250000e+001  4.200000e+001
      vertex  3.750000e+000  0.000000e+000  4.200000e+001
      vertex  3.033814e+000 -2.204195e+000  4.200000e+001
    endloop
  endfacet
  facet normal  0.000000e+000  0.000000e+000  1.000000e+000
    outer loop
      vertex  1.403617e+001 -1.250000e+001  4.200000e+001
      vertex  3.033814e+000 -2.204195e+000  4.200000e+001
      vertex  1.158814e+000 -3.566462e+000  4.200000e+001
    endloop
  endfacet
  facet normal  0.000000e+000  0.000000e+000  1.000000e+000
    outer loop
      vertex  1.403617e+001 -1.250000e+001  4.200000e+001
      vertex  1.158814e+000 -3.566462e+000  4.200000e+001
      vertex -1.158814e+000 -3.566462e+000  4.200000e+001
    endloop
  endfacet
  facet normal  0.000000e+000  0.000000e+000  1.000000e+000
    outer loop
      vertex  1.403617e+001 -1.250000e+001  4.200000e+001
      vertex -1.158814e+000 -3.566462e+000  4.200000e+001
      vertex  7.191383e-001 -7.183626e+000  4.200000e+001
    endloop
  endfacet
  facet normal  0.000000e+000  0.000000e+000  1.000000e+000
    outer loop
      vertex  1.403617e+001 -1.250000e+001  4.200000e+001
      vertex  7.191383e-001 -7.183626e+000  4.200000e+001
      vertex  1.439324e+000 -8.077691e+000  4.200000e+001
    endloop
  endfacet
  facet normal  0.000000e+000  0.000000e+000  1.000000e+000
    outer loop
      vertex  1.403617e+001 -1.250000e+001  4.200000e+001
      vertex  1.439324e+000 -8.077691e+000  4.200000e+001
      vertex  1.316374e+000 -9.219138e+000  4.200000e+001
    endloop
  endfacet
  facet normal  0.000000e+000  0.000000e+000  9.999999e-001
    outer loop
      vertex  1.403617e+001 -1.250000e+001  4.200000e+001
      vertex  1.316374e+000 -9.219138e+000  4.200000e+001
      vertex  4.223093e-001 -9.939324e+000  4.200000e+001
    endloop
  endfacet
  facet normal  0.000000e+000  0.000000e+000  1.000000e+000
    outer loop
      vertex  1.158814e+000  3.566462e+000  4.200000e+001
      vertex  4.223093e-001  7.060676e+000  4.200000e+001
      vertex -1.158814e+000  3.566462e+000  4.200000e+001
    endloop
  endfacet
  facet normal  0.000000e+000  0.000000e+000  1.000000e+000
    outer loop
      vertex -1.158814e+000  3.566462e+000  4.200000e+001
      vertex  4.223093e-001  7.060676e+000  4.200000e+001
      vertex -7.191383e-001  7.183626e+000  4.200000e+001
    endloop
  endfacet
  facet normal  0.000000e+000  0.000000e+000  1.000000e+000
    outer loop
      vertex -1.158814e+000  3.566462e+000  4.200000e+001
      vertex -7.191383e-001  7.183626e+000  4.200000e+001
      vertex -3.033814e+000  2.204195e+000  4.200000e+001
    endloop
  endfacet
  facet normal  0.000000e+000  0.000000e+000 -9.999999e-001
    outer loop
      vertex  7.191383e-001  9.816374e+000  4.000000e+001
      vertex -4.223093e-001  9.939324e+000  4.000000e+001
      vertex  1.403617e+001  1.150000e+001  4.000000e+001
    endloop
  endfacet
  facet normal  0.000000e+000  0.000000e+000 -1.000000e+000
    outer loop
      vertex -4.223093e-001  9.939324e+000  4.000000e+001
      vertex -1.396383e+001  1.150000e+001  4.000000e+001
      vertex  1.403617e+001  1.150000e+001  4.000000e+001
    endloop
  endfacet
  facet normal  0.000000e+000  0.000000e+000 -1.000000e+000
    outer loop
      vertex -1.439324e+000  8.077691e+000  4.000000e+001
      vertex -7.191383e-001  7.183626e+000  4.000000e+001
      vertex -1.000000e+001  7.500000e+000  4.000000e+001
    endloop
  endfacet
  facet normal  0.000000e+000  0.000000e+000 -1.000000e+000
    outer loop
      vertex -1.158814e+000  3.566462e+000  4.000000e+001
      vertex -1.249106e+001 -4.726520e-001  4.000000e+001
      vertex -1.193117e+001  3.727902e+000  4.000000e+001
    endloop
  endfacet
  facet normal  0.000000e+000  0.000000e+000 -1.000000e+000
    outer loop
      vertex -1.249106e+001 -4.726520e-001  4.000000e+001
      vertex -1.158814e+000  3.566462e+000  4.000000e+001
      vertex -3.033814e+000  2.204195e+000  4.000000e+001
    endloop
  endfacet
  facet normal  0.000000e+000  0.000000e+000 -1.000000e+000
    outer loop
      vertex -1.158814e+000 -3.566462e+000  4.000000e+001
      vertex -1.161533e+001 -4.618883e+000  4.000000e+001
      vertex -3.033814e+000 -2.204195e+000  4.000000e+001
    endloop
  endfacet
  facet normal  0.000000e+000  0.000000e+000 -1.000000e+000
    outer loop
      vertex  1.249106e+001 -4.726520e-001  4.000000e+001
      vertex  1.158814e+000  3.566462e+000  4.000000e+001
      vertex  1.193117e+001  3.727902e+000  4.000000e+001
    endloop
  endfacet
  facet normal  0.000000e+000  0.000000e+000 -1.000000e+000
    outer loop
      vertex  3.033814e+000  2.204195e+000  4.000000e+001
      vertex  1.158814e+000  3.566462e+000  4.000000e+001
      vertex  1.249106e+001 -4.726520e-001  4.000000e+001
    endloop
  endfacet
  facet normal  0.000000e+000  -0.000000e+000 -1.000000e+000
    outer loop
      vertex  1.158814e+000 -3.566462e+000  4.000000e+001
      vertex  3.033814e+000 -2.204195e+000  4.000000e+001
      vertex  1.161533e+001 -4.618883e+000  4.000000e+001
    endloop
  endfacet
  facet normal  0.000000e+000  0.000000e+000 -1.000000e+000
    outer loop
      vertex  1.403617e+001  7.500000e+000  4.000000e+001
      vertex  1.000000e+001  7.500000e+000  4.000000e+001
      vertex  1.316374e+000  7.780862e+000  4.000000e+001
    endloop
  endfacet
  facet normal  0.000000e+000  0.000000e+000 -1.000000e+000
    outer loop
      vertex  1.403617e+001  7.500000e+000  4.000000e+001
      vertex  1.316374e+000  7.780862e+000  4.000000e+001
      vertex  1.439324e+000  8.922309e+000  4.000000e+001
    endloop
  endfacet
  facet normal  0.000000e+000  0.000000e+000 -9.999999e-001
    outer loop
      vertex  1.403617e+001  7.500000e+000  4.000000e+001
      vertex  1.439324e+000  8.922309e+000  4.000000e+001
      vertex  7.191383e-001  9.816374e+000  4.000000e+001
    endloop
  endfacet
  facet normal  0.000000e+000  0.000000e+000 -1.000000e+000
    outer loop
      vertex  1.403617e+001  7.500000e+000  4.000000e+001
      vertex  7.191383e-001  9.816374e+000  4.000000e+001
      vertex  1.403617e+001  1.150000e+001  4.000000e+001
    endloop
  endfacet
  facet normal  0.000000e+000  0.000000e+000 -1.000000e+000
    outer loop
      vertex -1.396383e+001  7.500000e+000  4.000000e+001
      vertex -1.396383e+001  1.150000e+001  4.000000e+001
      vertex -4.223093e-001  9.939324e+000  4.000000e+001
    endloop
  endfacet
  facet normal  0.000000e+000  0.000000e+000 -9.999999e-001
    outer loop
      vertex -1.396383e+001  7.500000e+000  4.000000e+001
      vertex -4.223093e-001  9.939324e+000  4.000000e+001
      vertex -1.316374e+000  9.219138e+000  4.000000e+001
    endloop
  endfacet
  facet normal  0.000000e+000  0.000000e+000 -1.000000e+000
    outer loop
      vertex -1.396383e+001  7.500000e+000  4.000000e+001
      vertex -1.316374e+000  9.219138e+000  4.000000e+001
      vertex -1.439324e+000  8.077691e+000  4.000000e+001
    endloop
  endfacet
  facet normal  0.000000e+000  0.000000e+000 -1.000000e+000
    outer loop
      vertex -1.396383e+001  7.500000e+000  4.000000e+001
      vertex -1.439324e+000  8.077691e+000  4.000000e+001
      vertex -1.000000e+001  7.500000e+000  4.000000e+001
    endloop
  endfacet
  facet normal  -0.000000e+000  0.000000e+000 -1.000000e+000
    outer loop
      vertex -1.439324e+000 -8.922309e+000  4.000000e+001
      vertex -7.191383e-001 -9.816374e+000  4.000000e+001
      vertex -6.113031e+000 -1.090325e+001  4.000000e+001
    endloop
  endfacet
  facet normal  0.000000e+000  0.000000e+000 -1.000000e+000
    outer loop
      vertex -6.113031e+000 -1.090325e+001  4.000000e+001
      vertex -7.191383e-001 -9.816374e+000  4.000000e+001
      vertex  4.223093e-001 -9.939324e+000  4.000000e+001
    endloop
  endfacet
  facet normal  0.000000e+000  0.000000e+000 -9.999999e-001
    outer loop
      vertex -6.113031e+000 -1.090325e+001  4.000000e+001
      vertex  4.223093e-001 -9.939324e+000  4.000000e+001
      vertex -2.118852e+000 -1.231911e+001  4.000000e+001
    endloop
  endfacet
  facet normal  0.000000e+000  0.000000e+000 -1.000000e+000
    outer loop
      vertex -2.118852e+000 -1.231911e+001  4.000000e+001
      vertex  4.223093e-001 -9.939324e+000  4.000000e+001
      vertex  6.113031e+000 -1.090325e+001  4.000000e+001
    endloop
  endfacet
  facet normal  0.000000e+000  0.000000e+000 -1.000000e+000
    outer loop
      vertex -2.118852e+000 -1.231911e+001  4.000000e+001
      vertex  6.113031e+000 -1.090325e+001  4.000000e+001
      vertex  2.118852e+000 -1.231911e+001  4.000000e+001
    endloop
  endfacet
  facet normal  0.000000e+000  -0.000000e+000 -1.000000e+000
    outer loop
      vertex  4.223093e-001 -9.939324e+000  4.000000e+001
      vertex  1.316374e+000 -9.219138e+000  4.000000e+001
      vertex  6.113031e+000 -1.090325e+001  4.000000e+001
    endloop
  endfacet
  facet normal  0.000000e+000  0.000000e+000 -9.999999e-001
    outer loop
      vertex  6.113031e+000 -1.090325e+001  4.000000e+001
      vertex  1.316374e+000 -9.219138e+000  4.000000e+001
      vertex  1.439324e+000 -8.077691e+000  4.000000e+001
    endloop
  endfacet
  facet normal  0.000000e+000  0.000000e+000 -1.000000e+000
    outer loop
      vertex  6.113031e+000 -1.090325e+001  4.000000e+001
      vertex  1.439324e+000 -8.077691e+000  4.000000e+001
      vertex  9.404628e+000 -8.234256e+000  4.000000e+001
    endloop
  endfacet
  facet normal  0.000000e+000  0.000000e+000 -1.000000e+000
    outer loop
      vertex  9.404628e+000 -8.234256e+000  4.000000e+001
      vertex  1.439324e+000 -8.077691e+000  4.000000e+001
      vertex  7.191383e-001 -7.183626e+000  4.000000e+001
    endloop
  endfacet
  facet normal  0.000000e+000  0.000000e+000 -1.000000e+000
    outer loop
      vertex  9.404628e+000 -8.234256e+000  4.000000e+001
      vertex  7.191383e-001 -7.183626e+000  4.000000e+001
      vertex  1.161533e+001 -4.618883e+000  4.000000e+001
    endloop
  endfacet
  facet normal  -0.000000e+000  0.000000e+000 -1.000000e+000
    outer loop
      vertex  1.161533e+001 -4.618883e+000  4.000000e+001
      vertex  7.191383e-001 -7.183626e+000  4.000000e+001
      vertex -1.158814e+000 -3.566462e+000  4.000000e+001
    endloop
  endfacet
  facet normal  0.000000e+000  0.000000e+000 -1.000000e+000
    outer loop
      vertex  1.161533e+001 -4.618883e+000  4.000000e+001
      vertex -1.158814e+000 -3.566462e+000  4.000000e+001
      vertex  1.158814e+000 -3.566462e+000  4.000000e+001
    endloop
  endfacet
  facet normal  0.000000e+000  0.000000e+000 -1.000000e+000
    outer loop
      vertex  1.000000e+001  7.500000e+000  4.000000e+001
      vertex  1.193117e+001  3.727902e+000  4.000000e+001
      vertex  1.316374e+000  7.780862e+000  4.000000e+001
    endloop
  endfacet
  facet normal  0.000000e+000  -0.000000e+000 -1.000000e+000
    outer loop
      vertex  1.316374e+000  7.780862e+000  4.000000e+001
      vertex  1.193117e+001  3.727902e+000  4.000000e+001
      vertex  4.223093e-001  7.060676e+000  4.000000e+001
    endloop
  endfacet
  facet normal  0.000000e+000  0.000000e+000 -1.000000e+000
    outer loop
      vertex  1.193117e+001  3.727902e+000  4.000000e+001
      vertex  1.158814e+000  3.566462e+000  4.000000e+001
      vertex  4.223093e-001  7.060676e+000  4.000000e+001
    endloop
  endfacet
  facet normal  0.000000e+000  -0.000000e+000 -1.000000e+000
    outer loop
      vertex  4.223093e-001  7.060676e+000  4.000000e+001
      vertex  1.158814e+000  3.566462e+000  4.000000e+001
      vertex -1.158814e+000  3.566462e+000  4.000000e+001
    endloop
  endfacet
  facet normal  0.000000e+000  0.000000e+000 -1.000000e+000
    outer loop
      vertex  4.223093e-001  7.060676e+000  4.000000e+001
      vertex -1.158814e+000  3.566462e+000  4.000000e+001
      vertex -7.191383e-001  7.183626e+000  4.000000e+001
    endloop
  endfacet
  facet normal  0.000000e+000  0.000000e+000 -1.000000e+000
    outer loop
      vertex -7.191383e-001  7.183626e+000  4.000000e+001
      vertex -1.158814e+000  3.566462e+000  4.000000e+001
      vertex -1.193117e+001  3.727902e+000  4.000000e+001
    endloop
  endfacet
  facet normal  0.000000e+000  0.000000e+000 -1.000000e+000
    outer loop
      vertex -7.191383e-001  7.183626e+000  4.000000e+001
      vertex -1.193117e+001  3.727902e+000  4.000000e+001
      vertex -1.000000e+001  7.500000e+000  4.000000e+001
    endloop
  endfacet
  facet normal  0.000000e+000  0.000000e+000 -1.000000e+000
    outer loop
      vertex -4.223093e-001 -7.060676e+000  4.000000e+001
      vertex -1.158814e+000 -3.566462e+000  4.000000e+001
      vertex  7.191383e-001 -7.183626e+000  4.000000e+001
    endloop
  endfacet
  facet normal  0.000000e+000  0.000000e+000 -1.000000e+000
    outer loop
      vertex -1.158814e+000 -3.566462e+000  4.000000e+001
      vertex -4.223093e-001 -7.060676e+000  4.000000e+001
      vertex -1.161533e+001 -4.618883e+000  4.000000e+001
    endloop
  endfacet
  facet normal  0.000000e+000  0.000000e+000 -9.999999e-001
    outer loop
      vertex -1.161533e+001 -4.618883e+000  4.000000e+001
      vertex -4.223093e-001 -7.060676e+000  4.000000e+001
      vertex -1.316374e+000 -7.780862e+000  4.000000e+001
    endloop
  endfacet
  facet normal  -0.000000e+000  0.000000e+000 -1.000000e+000
    outer loop
      vertex -1.161533e+001 -4.618883e+000  4.000000e+001
      vertex -1.316374e+000 -7.780862e+000  4.000000e+001
      vertex -9.404628e+000 -8.234256e+000  4.000000e+001
    endloop
  endfacet
  facet normal  0.000000e+000  0.000000e+000 -1.000000e+000
    outer loop
      vertex -9.404628e+000 -8.234256e+000  4.000000e+001
      vertex -1.316374e+000 -7.780862e+000  4.000000e+001
      vertex -1.439324e+000 -8.922309e+000  4.000000e+001
    endloop
  endfacet
  facet normal  -0.000000e+000  0.000000e+000 -1.000000e+000
    outer loop
      vertex -9.404628e+000 -8.234256e+000  4.000000e+001
      vertex -1.439324e+000 -8.922309e+000  4.000000e+001
      vertex -6.113031e+000 -1.090325e+001  4.000000e+001
    endloop
  endfacet
  facet normal  -0.000000e+000  0.000000e+000 -1.000000e+000
    outer loop
      vertex -3.033814e+000  2.204195e+000  4.000000e+001
      vertex -3.750000e+000  2.124562e-015  4.000000e+001
      vertex -1.249106e+001 -4.726520e-001  4.000000e+001
    endloop
  endfacet
  facet normal  0.000000e+000  0.000000e+000 -1.000000e+000
    outer loop
      vertex -1.249106e+001 -4.726520e-001  4.000000e+001
      vertex -3.750000e+000  2.124562e-015  4.000000e+001
      vertex -3.033814e+000 -2.204195e+000  4.000000e+001
    endloop
  endfacet
  facet normal  -0.000000e+000  0.000000e+000 -1.000000e+000
    outer loop
      vertex -1.249106e+001 -4.726520e-001  4.000000e+001
      vertex -3.033814e+000 -2.204195e+000  4.000000e+001
      vertex -1.161533e+001 -4.618883e+000  4.000000e+001
    endloop
  endfacet
  facet normal  0.000000e+000  0.000000e+000 -1.000000e+000
    outer loop
      vertex  3.033814e+000  2.204195e+000  4.000000e+001
      vertex  1.249106e+001 -4.726520e-001  4.000000e+001
      vertex  3.750000e+000  0.000000e+000  4.000000e+001
    endloop
  endfacet
  facet normal  0.000000e+000  0.000000e+000 -1.000000e+000
    outer loop
      vertex  3.750000e+000  0.000000e+000  4.000000e+001
      vertex  1.249106e+001 -4.726520e-001  4.000000e+001
      vertex  1.161533e+001 -4.618883e+000  4.000000e+001
    endloop
  endfacet
  facet normal  0.000000e+000  0.000000e+000 -1.000000e+000
    outer loop
      vertex  3.750000e+000  0.000000e+000  4.000000e+001
      vertex  1.161533e+001 -4.618883e+000  4.000000e+001
      vertex  3.033814e+000 -2.204195e+000  4.000000e+001
    endloop
  endfacet
  facet normal  7.787678e-001  6.273122e-001  -0.000000e+000
    outer loop
      vertex -7.191383e-001  7.183626e+000  4.200000e+001
      vertex -1.439324e+000  8.077691e+000  4.000000e+001
      vertex -1.439324e+000  8.077691e+000  4.200000e+001
    endloop
  endfacet
  facet normal  9.942487e-001 -1.070952e-001  0.000000e+000
    outer loop
      vertex -1.439324e+000  8.077691e+000  4.200000e+001
      vertex -1.439324e+000  8.077691e+000  4.000000e+001
      vertex -1.316374e+000  9.219138e+000  4.000000e+001
    endloop
  endfacet
  facet normal  9.942487e-001 -1.070952e-001  0.000000e+000
    outer loop
      vertex -1.439324e+000  8.077691e+000  4.200000e+001
      vertex -1.316374e+000  9.219138e+000  4.000000e+001
      vertex -1.316374e+000  9.219138e+000  4.200000e+001
    endloop
  endfacet
  facet normal  7.787678e-001  6.273122e-001  0.000000e+000
    outer loop
      vertex -1.439324e+000  8.077691e+000  4.000000e+001
      vertex -7.191383e-001  7.183626e+000  4.200000e+001
      vertex -7.191383e-001  7.183626e+000  4.000000e+001
    endloop
  endfacet
  facet normal  1.070951e-001  9.942488e-001  -0.000000e+000
    outer loop
      vertex -7.191383e-001  7.183626e+000  4.000000e+001
      vertex -7.191383e-001  7.183626e+000  4.200000e+001
      vertex  4.223093e-001  7.060676e+000  4.200000e+001
    endloop
  endfacet
  facet normal  1.070951e-001  9.942488e-001  0.000000e+000
    outer loop
      vertex -7.191383e-001  7.183626e+000  4.000000e+001
      vertex  4.223093e-001  7.060676e+000  4.200000e+001
      vertex  4.223093e-001  7.060676e+000  4.000000e+001
    endloop
  endfacet
  facet normal -6.273124e-001  7.787677e-001  0.000000e+000
    outer loop
      vertex  4.223093e-001  7.060676e+000  4.000000e+001
      vertex  4.223093e-001  7.060676e+000  4.200000e+001
      vertex  1.316374e+000  7.780862e+000  4.200000e+001
    endloop
  endfacet
  facet normal -6.273124e-001  7.787677e-001  0.000000e+000
    outer loop
      vertex  4.223093e-001  7.060676e+000  4.000000e+001
      vertex  1.316374e+000  7.780862e+000  4.200000e+001
      vertex  1.316374e+000  7.780862e+000  4.000000e+001
    endloop
  endfacet
  facet normal -7.787678e-001 -6.273122e-001  0.000000e+000
    outer loop
      vertex  7.191383e-001  9.816374e+000  4.200000e+001
      vertex  1.439324e+000  8.922309e+000  4.000000e+001
      vertex  1.439324e+000  8.922309e+000  4.200000e+001
    endloop
  endfacet
  facet normal -9.942487e-001  1.070952e-001  0.000000e+000
    outer loop
      vertex  1.439324e+000  8.922309e+000  4.200000e+001
      vertex  1.439324e+000  8.922309e+000  4.000000e+001
      vertex  1.316374e+000  7.780862e+000  4.000000e+001
    endloop
  endfacet
  facet normal -9.942487e-001  1.070952e-001  0.000000e+000
    outer loop
      vertex  1.439324e+000  8.922309e+000  4.200000e+001
      vertex  1.316374e+000  7.780862e+000  4.000000e+001
      vertex  1.316374e+000  7.780862e+000  4.200000e+001
    endloop
  endfacet
  facet normal -7.787678e-001 -6.273122e-001  -0.000000e+000
    outer loop
      vertex  1.439324e+000  8.922309e+000  4.000000e+001
      vertex  7.191383e-001  9.816374e+000  4.200000e+001
      vertex  7.191383e-001  9.816374e+000  4.000000e+001
    endloop
  endfacet
  facet normal -1.070951e-001 -9.942488e-001  0.000000e+000
    outer loop
      vertex  7.191383e-001  9.816374e+000  4.000000e+001
      vertex  7.191383e-001  9.816374e+000  4.200000e+001
      vertex -4.223093e-001  9.939324e+000  4.200000e+001
    endloop
  endfacet
  facet normal -1.070951e-001 -9.942488e-001  -0.000000e+000
    outer loop
      vertex  7.191383e-001  9.816374e+000  4.000000e+001
      vertex -4.223093e-001  9.939324e+000  4.200000e+001
      vertex -4.223093e-001  9.939324e+000  4.000000e+001
    endloop
  endfacet
  facet normal  6.273124e-001 -7.787677e-001  0.000000e+000
    outer loop
      vertex -4.223093e-001  9.939324e+000  4.000000e+001
      vertex -4.223093e-001  9.939324e+000  4.200000e+001
      vertex -1.316374e+000  9.219138e+000  4.200000e+001
    endloop
  endfacet
  facet normal  6.273124e-001 -7.787677e-001  0.000000e+000
    outer loop
      vertex -4.223093e-001  9.939324e+000  4.000000e+001
      vertex -1.316374e+000  9.219138e+000  4.200000e+001
      vertex -1.316374e+000  9.219138e+000  4.000000e+001
    endloop
  endfacet
  facet normal  7.787678e-001  6.273122e-001  -0.000000e+000
    outer loop
      vertex -7.191383e-001 -9.816374e+000  4.200000e+001
      vertex -1.439324e+000 -8.922309e+000  4.000000e+001
      vertex -1.439324e+000 -8.922309e+000  4.200000e+001
    endloop
  endfacet
  facet normal  9.942487e-001 -1.070952e-001  0.000000e+000
    outer loop
      vertex -1.439324e+000 -8.922309e+000  4.200000e+001
      vertex -1.439324e+000 -8.922309e+000  4.000000e+001
      vertex -1.316374e+000 -7.780862e+000  4.000000e+001
    endloop
  endfacet
  facet normal  9.942487e-001 -1.070952e-001  0.000000e+000
    outer loop
      vertex -1.439324e+000 -8.922309e+000  4.200000e+001
      vertex -1.316374e+000 -7.780862e+000  4.000000e+001
      vertex -1.316374e+000 -7.780862e+000  4.200000e+001
    endloop
  endfacet
  facet normal  7.787678e-001  6.273122e-001  0.000000e+000
    outer loop
      vertex -1.439324e+000 -8.922309e+000  4.000000e+001
      vertex -7.191383e-001 -9.816374e+000  4.200000e+001
      vertex -7.191383e-001 -9.816374e+000  4.000000e+001
    endloop
  endfacet
  facet normal  1.070951e-001  9.942488e-001  -0.000000e+000
    outer loop
      vertex -7.191383e-001 -9.816374e+000  4.000000e+001
      vertex -7.191383e-001 -9.816374e+000  4.200000e+001
      vertex  4.223093e-001 -9.939324e+000  4.200000e+001
    endloop
  endfacet
  facet normal  1.070951e-001  9.942488e-001  0.000000e+000
    outer loop
      vertex -7.191383e-001 -9.816374e+000  4.000000e+001
      vertex  4.223093e-001 -9.939324e+000  4.200000e+001
      vertex  4.223093e-001 -9.939324e+000  4.000000e+001
    endloop
  endfacet
  facet normal -6.273124e-001  7.787677e-001  0.000000e+000
    outer loop
      vertex  4.223093e-001 -9.939324e+000  4.000000e+001
      vertex  4.223093e-001 -9.939324e+000  4.200000e+001
      vertex  1.316374e+000 -9.219138e+000  4.200000e+001
    endloop
  endfacet
  facet normal -6.273124e-001  7.787677e-001  0.000000e+000
    outer loop
      vertex  4.223093e-001 -9.939324e+000  4.000000e+001
      vertex  1.316374e+000 -9.219138e+000  4.200000e+001
      vertex  1.316374e+000 -9.219138e+000  4.000000e+001
    endloop
  endfacet
  facet normal -7.787678e-001 -6.273122e-001  0.000000e+000
    outer loop
      vertex  7.191383e-001 -7.183626e+000  4.200000e+001
      vertex  1.439324e+000 -8.077691e+000  4.000000e+001
      vertex  1.439324e+000 -8.077691e+000  4.200000e+001
    endloop
  endfacet
  facet normal -9.942487e-001  1.070952e-001  0.000000e+000
    outer loop
      vertex  1.439324e+000 -8.077691e+000  4.200000e+001
      vertex  1.439324e+000 -8.077691e+000  4.000000e+001
      vertex  1.316374e+000 -9.219138e+000  4.000000e+001
    endloop
  endfacet
  facet normal -9.942487e-001  1.070952e-001  0.000000e+000
    outer loop
      vertex  1.439324e+000 -8.077691e+000  4.200000e+001
      vertex  1.316374e+000 -9.219138e+000  4.000000e+001
      vertex  1.316374e+000 -9.219138e+000  4.200000e+001
    endloop
  endfacet
  facet normal -7.787678e-001 -6.273122e-001  -0.000000e+000
    outer loop
      vertex  1.439324e+000 -8.077691e+000  4.000000e+001
      vertex  7.191383e-001 -7.183626e+000  4.200000e+001
      vertex  7.191383e-001 -7.183626e+000  4.000000e+001
    endloop
  endfacet
  facet normal -1.070951e-001 -9.942488e-001  0.000000e+000
    outer loop
      vertex  7.191383e-001 -7.183626e+000  4.000000e+001
      vertex  7.191383e-001 -7.183626e+000  4.200000e+001
      vertex -4.223093e-001 -7.060676e+000  4.200000e+001
    endloop
  endfacet
  facet normal -1.070951e-001 -9.942488e-001  -0.000000e+000
    outer loop
      vertex  7.191383e-001 -7.183626e+000  4.000000e+001
      vertex -4.223093e-001 -7.060676e+000  4.200000e+001
      vertex -4.223093e-001 -7.060676e+000  4.000000e+001
    endloop
  endfacet
  facet normal  6.273124e-001 -7.787677e-001  0.000000e+000
    outer loop
      vertex -4.223093e-001 -7.060676e+000  4.000000e+001
      vertex -4.223093e-001 -7.060676e+000  4.200000e+001
      vertex -1.316374e+000 -7.780862e+000  4.200000e+001
    endloop
  endfacet
  facet normal  6.273124e-001 -7.787677e-001  0.000000e+000
    outer loop
      vertex -4.223093e-001 -7.060676e+000  4.000000e+001
      vertex -1.316374e+000 -7.780862e+000  4.200000e+001
      vertex -1.316374e+000 -7.780862e+000  4.000000e+001
    endloop
  endfacet
  facet normal  0.000000e+000  9.999999e-001  0.000000e+000
    outer loop
      vertex  1.509684e+001 -1.250000e+001  1.342231e+001
      vertex  1.521980e+001 -1.250000e+001  1.228086e+001
      vertex  1.403617e+001 -1.250000e+001  0.000000e+000
    endloop
  endfacet
  facet normal  0.000000e+000  1.000000e+000  0.000000e+000
    outer loop
      vertex  1.521980e+001 -1.250000e+001  1.228086e+001
      vertex  1.611386e+001 -1.250000e+001  1.156068e+001
      vertex  1.403617e+001 -1.250000e+001  0.000000e+000
    endloop
  endfacet
  facet normal  0.000000e+000  1.000000e+000  0.000000e+000
    outer loop
      vertex  2.053617e+001 -1.250000e+001  0.000000e+000
      vertex  1.403617e+001 -1.250000e+001  0.000000e+000
      vertex  1.611386e+001 -1.250000e+001  1.156068e+001
    endloop
  endfacet
  facet normal  -0.000000e+000  1.000000e+000  0.000000e+000
    outer loop
      vertex  2.053617e+001 -1.250000e+001  0.000000e+000
      vertex  1.611386e+001 -1.250000e+001  1.156068e+001
      vertex  1.725531e+001 -1.250000e+001  1.168363e+001
    endloop
  endfacet
  facet normal  -0.000000e+000  1.000000e+000  0.000000e+000
    outer loop
      vertex  2.053617e+001 -1.250000e+001  0.000000e+000
      vertex  1.725531e+001 -1.250000e+001  1.168363e+001
      vertex  1.797549e+001 -1.250000e+001  1.257769e+001
    endloop
  endfacet
  facet normal  -0.000000e+000  1.000000e+000  -0.000000e+000
    outer loop
      vertex  2.053617e+001 -1.250000e+001  0.000000e+000
      vertex  1.797549e+001 -1.250000e+001  1.257769e+001
      vertex  1.785254e+001 -1.250000e+001  1.371914e+001
    endloop
  endfacet
  facet normal  -0.000000e+000  1.000000e+000  -0.000000e+000
    outer loop
      vertex  2.053617e+001 -1.250000e+001  0.000000e+000
      vertex  1.785254e+001 -1.250000e+001  1.371914e+001
      vertex  1.725531e+001 -1.250000e+001  2.168363e+001
    endloop
  endfacet
  facet normal  -0.000000e+000  1.000000e+000  0.000000e+000
    outer loop
      vertex  2.053617e+001 -1.250000e+001  0.000000e+000
      vertex  1.725531e+001 -1.250000e+001  2.168363e+001
      vertex  1.797549e+001 -1.250000e+001  2.257769e+001
    endloop
  endfacet
  facet normal  0.000000e+000  1.000000e+000  0.000000e+000
    outer loop
      vertex  1.403617e+001 -1.250000e+001  4.200000e+001
      vertex  2.053617e+001 -1.250000e+001  4.200000e+001
      vertex  1.695848e+001 -1.250000e+001  2.443933e+001
    endloop
  endfacet
  facet normal  0.000000e+000  1.000000e+000  0.000000e+000
    outer loop
      vertex  1.403617e+001 -1.250000e+001  4.200000e+001
      vertex  1.695848e+001 -1.250000e+001  2.443933e+001
      vertex  1.581703e+001 -1.250000e+001  2.431637e+001
    endloop
  endfacet
  facet normal  0.000000e+000  1.000000e+000  0.000000e+000
    outer loop
      vertex  1.403617e+001 -1.250000e+001  4.200000e+001
      vertex  1.581703e+001 -1.250000e+001  2.431637e+001
      vertex  1.509684e+001 -1.250000e+001  2.342231e+001
    endloop
  endfacet
  facet normal  0.000000e+000  1.000000e+000  0.000000e+000
    outer loop
      vertex  1.403617e+001 -1.250000e+001  4.200000e+001
      vertex  1.509684e+001 -1.250000e+001  2.342231e+001
      vertex  1.403617e+001 -1.250000e+001  0.000000e+000
    endloop
  endfacet
  facet normal  0.000000e+000  1.000000e+000  -0.000000e+000
    outer loop
      vertex  2.053617e+001 -1.250000e+001  4.200000e+001
      vertex  2.053617e+001 -1.250000e+001  0.000000e+000
      vertex  1.797549e+001 -1.250000e+001  2.257769e+001
    endloop
  endfacet
  facet normal  0.000000e+000  1.000000e+000  -0.000000e+000
    outer loop
      vertex  2.053617e+001 -1.250000e+001  4.200000e+001
      vertex  1.797549e+001 -1.250000e+001  2.257769e+001
      vertex  1.785254e+001 -1.250000e+001  2.371914e+001
    endloop
  endfacet
  facet normal  0.000000e+000  9.999999e-001  -0.000000e+000
    outer loop
      vertex  2.053617e+001 -1.250000e+001  4.200000e+001
      vertex  1.785254e+001 -1.250000e+001  2.371914e+001
      vertex  1.695848e+001 -1.250000e+001  2.443933e+001
    endloop
  endfacet
  facet normal  0.000000e+000  1.000000e+000  0.000000e+000
    outer loop
      vertex  1.581703e+001 -1.250000e+001  1.431637e+001
      vertex  1.611386e+001 -1.250000e+001  2.156067e+001
      vertex  1.695848e+001 -1.250000e+001  1.443932e+001
    endloop
  endfacet
  facet normal  0.000000e+000  1.000000e+000  -0.000000e+000
    outer loop
      vertex  1.695848e+001 -1.250000e+001  1.443932e+001
      vertex  1.611386e+001 -1.250000e+001  2.156067e+001
      vertex  1.725531e+001 -1.250000e+001  2.168363e+001
    endloop
  endfacet
  facet normal  0.000000e+000  1.000000e+000  0.000000e+000
    outer loop
      vertex  1.695848e+001 -1.250000e+001  1.443932e+001
      vertex  1.725531e+001 -1.250000e+001  2.168363e+001
      vertex  1.785254e+001 -1.250000e+001  1.371914e+001
    endloop
  endfacet
  facet normal  0.000000e+000  1.000000e+000  0.000000e+000
    outer loop
      vertex  1.509684e+001 -1.250000e+001  2.342231e+001
      vertex  1.521980e+001 -1.250000e+001  2.228086e+001
      vertex  1.403617e+001 -1.250000e+001  0.000000e+000
    endloop
  endfacet
  facet normal  0.000000e+000  1.000000e+000  0.000000e+000
    outer loop
      vertex  1.403617e+001 -1.250000e+001  0.000000e+000
      vertex  1.521980e+001 -1.250000e+001  2.228086e+001
      vertex  1.509684e+001 -1.250000e+001  1.342231e+001
    endloop
  endfacet
  facet normal  0.000000e+000  1.000000e+000  0.000000e+000
    outer loop
      vertex  1.521980e+001 -1.250000e+001  2.228086e+001
      vertex  1.611386e+001 -1.250000e+001  2.156067e+001
      vertex  1.509684e+001 -1.250000e+001  1.342231e+001
    endloop
  endfacet
  facet normal  0.000000e+000  1.000000e+000  0.000000e+000
    outer loop
      vertex  1.509684e+001 -1.250000e+001  1.342231e+001
      vertex  1.611386e+001 -1.250000e+001  2.156067e+001
      vertex  1.581703e+001 -1.250000e+001  1.431637e+001
    endloop
  endfacet
  facet normal  0.000000e+000 -1.000000e+000  0.000000e+000
    outer loop
      vertex -1.718297e+001 -1.450000e+001  1.431637e+001
      vertex -1.688614e+001 -1.450000e+001  2.156067e+001
      vertex -1.790316e+001 -1.450000e+001  1.342231e+001
    endloop
  endfacet
  facet normal  0.000000e+000 -1.000000e+000  0.000000e+000
    outer loop
      vertex -2.046383e+001 -1.450000e+001  4.200000e+001
      vertex -2.046383e+001 -1.450000e+001  0.000000e+000
      vertex -1.790316e+001 -1.450000e+001  2.342231e+001
    endloop
  endfacet
  facet normal  0.000000e+000 -1.000000e+000  0.000000e+000
    outer loop
      vertex -2.046383e+001 -1.450000e+001  4.200000e+001
      vertex -1.790316e+001 -1.450000e+001  2.342231e+001
      vertex -1.718297e+001 -1.450000e+001  2.431637e+001
    endloop
  endfacet
  facet normal  0.000000e+000 -1.000000e+000  0.000000e+000
    outer loop
      vertex -2.046383e+001 -1.450000e+001  4.200000e+001
      vertex -1.718297e+001 -1.450000e+001  2.431637e+001
      vertex -1.604152e+001 -1.450000e+001  2.443933e+001
    endloop
  endfacet
  facet normal  0.000000e+000 -1.000000e+000  0.000000e+000
    outer loop
      vertex -2.046383e+001 -1.450000e+001  4.200000e+001
      vertex -1.604152e+001 -1.450000e+001  2.443933e+001
      vertex  2.053617e+001 -1.450000e+001  4.200000e+001
    endloop
  endfacet
  facet normal  0.000000e+000 -1.000000e+000  0.000000e+000
    outer loop
      vertex -2.046383e+001 -1.450000e+001  0.000000e+000
      vertex  2.053617e+001 -1.450000e+001  0.000000e+000
      vertex -1.574469e+001 -1.450000e+001  1.168363e+001
    endloop
  endfacet
  facet normal  0.000000e+000 -1.000000e+000  0.000000e+000
    outer loop
      vertex -2.046383e+001 -1.450000e+001  0.000000e+000
      vertex -1.574469e+001 -1.450000e+001  1.168363e+001
      vertex -1.688614e+001 -1.450000e+001  1.156068e+001
    endloop
  endfacet
  facet normal  -0.000000e+000 -1.000000e+000  0.000000e+000
    outer loop
      vertex -2.046383e+001 -1.450000e+001  0.000000e+000
      vertex -1.688614e+001 -1.450000e+001  1.156068e+001
      vertex -1.778020e+001 -1.450000e+001  1.228086e+001
    endloop
  endfacet
  facet normal  -0.000000e+000 -1.000000e+000  0.000000e+000
    outer loop
      vertex -2.046383e+001 -1.450000e+001  0.000000e+000
      vertex -1.778020e+001 -1.450000e+001  1.228086e+001
      vertex -1.790316e+001 -1.450000e+001  1.342231e+001
    endloop
  endfacet
  facet normal  -0.000000e+000 -1.000000e+000  0.000000e+000
    outer loop
      vertex -2.046383e+001 -1.450000e+001  0.000000e+000
      vertex -1.790316e+001 -1.450000e+001  1.342231e+001
      vertex -1.688614e+001 -1.450000e+001  2.156067e+001
    endloop
  endfacet
  facet normal  -0.000000e+000 -1.000000e+000  0.000000e+000
    outer loop
      vertex -2.046383e+001 -1.450000e+001  0.000000e+000
      vertex -1.688614e+001 -1.450000e+001  2.156067e+001
      vertex -1.778020e+001 -1.450000e+001  2.228086e+001
    endloop
  endfacet
  facet normal  -0.000000e+000 -1.000000e+000  0.000000e+000
    outer loop
      vertex -2.046383e+001 -1.450000e+001  0.000000e+000
      vertex -1.778020e+001 -1.450000e+001  2.228086e+001
      vertex -1.790316e+001 -1.450000e+001  2.342231e+001
    endloop
  endfacet
  facet normal  0.000000e+000 -1.000000e+000  -0.000000e+000
    outer loop
      vertex  2.053617e+001 -1.450000e+001  0.000000e+000
      vertex  1.797549e+001 -1.450000e+001  2.257769e+001
      vertex  1.725531e+001 -1.450000e+001  2.168363e+001
    endloop
  endfacet
  facet normal  0.000000e+000 -1.000000e+000  0.000000e+000
    outer loop
      vertex  2.053617e+001 -1.450000e+001  0.000000e+000
      vertex  1.725531e+001 -1.450000e+001  2.168363e+001
      vertex  1.785254e+001 -1.450000e+001  1.371914e+001
    endloop
  endfacet
  facet normal  0.000000e+000 -1.000000e+000  0.000000e+000
    outer loop
      vertex  2.053617e+001 -1.450000e+001  0.000000e+000
      vertex  1.785254e+001 -1.450000e+001  1.371914e+001
      vertex  1.797549e+001 -1.450000e+001  1.257769e+001
    endloop
  endfacet
  facet normal  0.000000e+000 -1.000000e+000  -0.000000e+000
    outer loop
      vertex  2.053617e+001 -1.450000e+001  0.000000e+000
      vertex  1.797549e+001 -1.450000e+001  1.257769e+001
      vertex  1.725531e+001 -1.450000e+001  1.168363e+001
    endloop
  endfacet
  facet normal  0.000000e+000 -1.000000e+000  -0.000000e+000
    outer loop
      vertex  2.053617e+001 -1.450000e+001  0.000000e+000
      vertex  1.725531e+001 -1.450000e+001  1.168363e+001
      vertex  1.611386e+001 -1.450000e+001  1.156068e+001
    endloop
  endfacet
  facet normal  -0.000000e+000 -1.000000e+000  -0.000000e+000
    outer loop
      vertex  2.053617e+001 -1.450000e+001  0.000000e+000
      vertex  1.611386e+001 -1.450000e+001  1.156068e+001
      vertex -1.574469e+001 -1.450000e+001  1.168363e+001
    endloop
  endfacet
  facet normal  0.000000e+000 -1.000000e+000  0.000000e+000
    outer loop
      vertex  2.053617e+001 -1.450000e+001  4.200000e+001
      vertex -1.604152e+001 -1.450000e+001  2.443933e+001
      vertex -1.514746e+001 -1.450000e+001  2.371914e+001
    endloop
  endfacet
  facet normal  0.000000e+000 -1.000000e+000  0.000000e+000
    outer loop
      vertex  2.053617e+001 -1.450000e+001  4.200000e+001
      vertex -1.514746e+001 -1.450000e+001  2.371914e+001
      vertex  1.581703e+001 -1.450000e+001  2.431637e+001
    endloop
  endfacet
  facet normal  0.000000e+000 -9.999999e-001  0.000000e+000
    outer loop
      vertex  2.053617e+001 -1.450000e+001  4.200000e+001
      vertex  1.581703e+001 -1.450000e+001  2.431637e+001
      vertex  1.695848e+001 -1.450000e+001  2.443933e+001
    endloop
  endfacet
  facet normal  0.000000e+000 -9.999999e-001  0.000000e+000
    outer loop
      vertex  2.053617e+001 -1.450000e+001  4.200000e+001
      vertex  1.695848e+001 -1.450000e+001  2.443933e+001
      vertex  1.785254e+001 -1.450000e+001  2.371914e+001
    endloop
  endfacet
  facet normal  0.000000e+000 -1.000000e+000  0.000000e+000
    outer loop
      vertex  2.053617e+001 -1.450000e+001  4.200000e+001
      vertex  1.785254e+001 -1.450000e+001  2.371914e+001
      vertex  1.797549e+001 -1.450000e+001  2.257769e+001
    endloop
  endfacet
  facet normal  0.000000e+000 -1.000000e+000  0.000000e+000
    outer loop
      vertex  2.053617e+001 -1.450000e+001  4.200000e+001
      vertex  1.797549e+001 -1.450000e+001  2.257769e+001
      vertex  2.053617e+001 -1.450000e+001  0.000000e+000
    endloop
  endfacet
  facet normal  0.000000e+000 -1.000000e+000  -0.000000e+000
    outer loop
      vertex  1.785254e+001 -1.450000e+001  1.371914e+001
      vertex  1.725531e+001 -1.450000e+001  2.168363e+001
      vertex  1.695848e+001 -1.450000e+001  1.443932e+001
    endloop
  endfacet
  facet normal  0.000000e+000 -1.000000e+000  0.000000e+000
    outer loop
      vertex  1.695848e+001 -1.450000e+001  1.443932e+001
      vertex  1.725531e+001 -1.450000e+001  2.168363e+001
      vertex  1.611386e+001 -1.450000e+001  2.156067e+001
    endloop
  endfacet
  facet normal  0.000000e+000 -1.000000e+000  -0.000000e+000
    outer loop
      vertex  1.695848e+001 -1.450000e+001  1.443932e+001
      vertex  1.611386e+001 -1.450000e+001  2.156067e+001
      vertex  1.581703e+001 -1.450000e+001  1.431637e+001
    endloop
  endfacet
  facet normal  0.000000e+000 -1.000000e+000  0.000000e+000
    outer loop
      vertex  1.581703e+001 -1.450000e+001  1.431637e+001
      vertex  1.611386e+001 -1.450000e+001  2.156067e+001
      vertex -1.604152e+001 -1.450000e+001  1.443932e+001
    endloop
  endfacet
  facet normal  0.000000e+000 -1.000000e+000  0.000000e+000
    outer loop
      vertex  1.581703e+001 -1.450000e+001  1.431637e+001
      vertex -1.604152e+001 -1.450000e+001  1.443932e+001
      vertex -1.514746e+001 -1.450000e+001  1.371914e+001
    endloop
  endfacet
  facet normal  0.000000e+000 -1.000000e+000  -0.000000e+000
    outer loop
      vertex  1.611386e+001 -1.450000e+001  2.156067e+001
      vertex -1.574469e+001 -1.450000e+001  2.168363e+001
      vertex -1.604152e+001 -1.450000e+001  1.443932e+001
    endloop
  endfacet
  facet normal  0.000000e+000 -1.000000e+000  0.000000e+000
    outer loop
      vertex -1.604152e+001 -1.450000e+001  1.443932e+001
      vertex -1.574469e+001 -1.450000e+001  2.168363e+001
      vertex -1.688614e+001 -1.450000e+001  2.156067e+001
    endloop
  endfacet
  facet normal  0.000000e+000 -1.000000e+000  -0.000000e+000
    outer loop
      vertex -1.604152e+001 -1.450000e+001  1.443932e+001
      vertex -1.688614e+001 -1.450000e+001  2.156067e+001
      vertex -1.718297e+001 -1.450000e+001  1.431637e+001
    endloop
  endfacet
  facet normal  0.000000e+000 -1.000000e+000  0.000000e+000
    outer loop
      vertex  1.581703e+001 -1.450000e+001  2.431637e+001
      vertex -1.514746e+001 -1.450000e+001  2.371914e+001
      vertex  1.509684e+001 -1.450000e+001  2.342231e+001
    endloop
  endfacet
  facet normal  -0.000000e+000 -1.000000e+000  0.000000e+000
    outer loop
      vertex  1.509684e+001 -1.450000e+001  2.342231e+001
      vertex -1.514746e+001 -1.450000e+001  2.371914e+001
      vertex -1.502451e+001 -1.450000e+001  2.257769e+001
    endloop
  endfacet
  facet normal  0.000000e+000 -1.000000e+000  0.000000e+000
    outer loop
      vertex  1.509684e+001 -1.450000e+001  2.342231e+001
      vertex -1.502451e+001 -1.450000e+001  2.257769e+001
      vertex  1.521980e+001 -1.450000e+001  2.228086e+001
    endloop
  endfacet
  facet normal  -0.000000e+000 -1.000000e+000  0.000000e+000
    outer loop
      vertex  1.521980e+001 -1.450000e+001  2.228086e+001
      vertex -1.502451e+001 -1.450000e+001  2.257769e+001
      vertex -1.574469e+001 -1.450000e+001  2.168363e+001
    endloop
  endfacet
  facet normal  0.000000e+000 -1.000000e+000  0.000000e+000
    outer loop
      vertex  1.521980e+001 -1.450000e+001  2.228086e+001
      vertex -1.574469e+001 -1.450000e+001  2.168363e+001
      vertex  1.611386e+001 -1.450000e+001  2.156067e+001
    endloop
  endfacet
  facet normal  0.000000e+000 -1.000000e+000  0.000000e+000
    outer loop
      vertex  1.581703e+001 -1.450000e+001  1.431637e+001
      vertex -1.514746e+001 -1.450000e+001  1.371914e+001
      vertex  1.509684e+001 -1.450000e+001  1.342231e+001
    endloop
  endfacet
  facet normal  -0.000000e+000 -1.000000e+000  0.000000e+000
    outer loop
      vertex  1.509684e+001 -1.450000e+001  1.342231e+001
      vertex -1.514746e+001 -1.450000e+001  1.371914e+001
      vertex -1.502451e+001 -1.450000e+001  1.257769e+001
    endloop
  endfacet
  facet normal  0.000000e+000 -1.000000e+000  0.000000e+000
    outer loop
      vertex  1.509684e+001 -1.450000e+001  1.342231e+001
      vertex -1.502451e+001 -1.450000e+001  1.257769e+001
      vertex  1.521980e+001 -1.450000e+001  1.228086e+001
    endloop
  endfacet
  facet normal  -0.000000e+000 -1.000000e+000  0.000000e+000
    outer loop
      vertex  1.521980e+001 -1.450000e+001  1.228086e+001
      vertex -1.502451e+001 -1.450000e+001  1.257769e+001
      vertex -1.574469e+001 -1.450000e+001  1.168363e+001
    endloop
  endfacet
  facet normal  0.000000e+000 -1.000000e+000  0.000000e+000
    outer loop
      vertex  1.521980e+001 -1.450000e+001  1.228086e+001
      vertex -1.574469e+001 -1.450000e+001  1.168363e+001
      vertex  1.611386e+001 -1.450000e+001  1.156068e+001
    endloop
  endfacet
  facet normal  0.000000e+000  1.000000e+000  -0.000000e+000
    outer loop
      vertex -1.688614e+001 -1.250000e+001  2.156067e+001
      vertex -1.718297e+001 -1.250000e+001  1.431637e+001
      vertex -1.790316e+001 -1.250000e+001  1.342231e+001
    endloop
  endfacet
  facet normal  0.000000e+000  1.000000e+000  0.000000e+000
    outer loop
      vertex -1.574469e+001 -1.250000e+001  2.168363e+001
      vertex -1.502451e+001 -1.250000e+001  1.257769e+001
      vertex -1.514746e+001 -1.250000e+001  1.371914e+001
    endloop
  endfacet
  facet normal  0.000000e+000  1.000000e+000  0.000000e+000
    outer loop
      vertex -2.046383e+001 -1.250000e+001  0.000000e+000
      vertex -2.046383e+001 -1.250000e+001  4.200000e+001
      vertex -1.790316e+001 -1.250000e+001  2.342231e+001
    endloop
  endfacet
  facet normal  0.000000e+000  1.000000e+000  0.000000e+000
    outer loop
      vertex -2.046383e+001 -1.250000e+001  0.000000e+000
      vertex -1.790316e+001 -1.250000e+001  2.342231e+001
      vertex -1.778020e+001 -1.250000e+001  2.228086e+001
    endloop
  endfacet
  facet normal  0.000000e+000  1.000000e+000  0.000000e+000
    outer loop
      vertex -2.046383e+001 -1.250000e+001  0.000000e+000
      vertex -1.778020e+001 -1.250000e+001  2.228086e+001
      vertex -1.688614e+001 -1.250000e+001  2.156067e+001
    endloop
  endfacet
  facet normal  0.000000e+000  1.000000e+000  0.000000e+000
    outer loop
      vertex -2.046383e+001 -1.250000e+001  0.000000e+000
      vertex -1.688614e+001 -1.250000e+001  2.156067e+001
      vertex -1.790316e+001 -1.250000e+001  1.342231e+001
    endloop
  endfacet
  facet normal  0.000000e+000  1.000000e+000  0.000000e+000
    outer loop
      vertex -2.046383e+001 -1.250000e+001  0.000000e+000
      vertex -1.790316e+001 -1.250000e+001  1.342231e+001
      vertex -1.778020e+001 -1.250000e+001  1.228086e+001
    endloop
  endfacet
  facet normal  0.000000e+000  1.000000e+000  0.000000e+000
    outer loop
      vertex -2.046383e+001 -1.250000e+001  0.000000e+000
      vertex -1.778020e+001 -1.250000e+001  1.228086e+001
      vertex -1.688614e+001 -1.250000e+001  1.156068e+001
    endloop
  endfacet
  facet normal  -0.000000e+000  1.000000e+000  0.000000e+000
    outer loop
      vertex -2.046383e+001 -1.250000e+001  0.000000e+000
      vertex -1.688614e+001 -1.250000e+001  1.156068e+001
      vertex -1.574469e+001 -1.250000e+001  1.168363e+001
    endloop
  endfacet
  facet normal  0.000000e+000  1.000000e+000  0.000000e+000
    outer loop
      vertex -2.046383e+001 -1.250000e+001  0.000000e+000
      vertex -1.574469e+001 -1.250000e+001  1.168363e+001
      vertex -1.396383e+001 -1.250000e+001  0.000000e+000
    endloop
  endfacet
  facet normal  0.000000e+000  1.000000e+000  0.000000e+000
    outer loop
      vertex -2.046383e+001 -1.250000e+001  4.200000e+001
      vertex -1.396383e+001 -1.250000e+001  4.200000e+001
      vertex -1.604152e+001 -1.250000e+001  2.443933e+001
    endloop
  endfacet
  facet normal  0.000000e+000  1.000000e+000  0.000000e+000
    outer loop
      vertex -2.046383e+001 -1.250000e+001  4.200000e+001
      vertex -1.604152e+001 -1.250000e+001  2.443933e+001
      vertex -1.718297e+001 -1.250000e+001  2.431637e+001
    endloop
  endfacet
  facet normal  0.000000e+000  1.000000e+000  0.000000e+000
    outer loop
      vertex -2.046383e+001 -1.250000e+001  4.200000e+001
      vertex -1.718297e+001 -1.250000e+001  2.431637e+001
      vertex -1.790316e+001 -1.250000e+001  2.342231e+001
    endloop
  endfacet
  facet normal  0.000000e+000  1.000000e+000  -0.000000e+000
    outer loop
      vertex -1.396383e+001 -1.250000e+001  4.200000e+001
      vertex -1.396383e+001 -1.250000e+001  0.000000e+000
      vertex -1.502451e+001 -1.250000e+001  2.257769e+001
    endloop
  endfacet
  facet normal  0.000000e+000  1.000000e+000  -0.000000e+000
    outer loop
      vertex -1.396383e+001 -1.250000e+001  4.200000e+001
      vertex -1.502451e+001 -1.250000e+001  2.257769e+001
      vertex -1.514746e+001 -1.250000e+001  2.371914e+001
    endloop
  endfacet
  facet normal  0.000000e+000  1.000000e+000  -0.000000e+000
    outer loop
      vertex -1.396383e+001 -1.250000e+001  4.200000e+001
      vertex -1.514746e+001 -1.250000e+001  2.371914e+001
      vertex -1.604152e+001 -1.250000e+001  2.443933e+001
    endloop
  endfacet
  facet normal  0.000000e+000  1.000000e+000  0.000000e+000
    outer loop
      vertex -1.718297e+001 -1.250000e+001  1.431637e+001
      vertex -1.688614e+001 -1.250000e+001  2.156067e+001
      vertex -1.604152e+001 -1.250000e+001  1.443932e+001
    endloop
  endfacet
  facet normal  0.000000e+000  1.000000e+000  -0.000000e+000
    outer loop
      vertex -1.604152e+001 -1.250000e+001  1.443932e+001
      vertex -1.688614e+001 -1.250000e+001  2.156067e+001
      vertex -1.574469e+001 -1.250000e+001  2.168363e+001
    endloop
  endfacet
  facet normal  0.000000e+000  9.999999e-001  0.000000e+000
    outer loop
      vertex -1.604152e+001 -1.250000e+001  1.443932e+001
      vertex -1.574469e+001 -1.250000e+001  2.168363e+001
      vertex -1.514746e+001 -1.250000e+001  1.371914e+001
    endloop
  endfacet
  facet normal  0.000000e+000  1.000000e+000  0.000000e+000
    outer loop
      vertex -1.574469e+001 -1.250000e+001  1.168363e+001
      vertex -1.502451e+001 -1.250000e+001  1.257769e+001
      vertex -1.396383e+001 -1.250000e+001  0.000000e+000
    endloop
  endfacet
  facet normal  0.000000e+000  1.000000e+000  0.000000e+000
    outer loop
      vertex -1.396383e+001 -1.250000e+001  0.000000e+000
      vertex -1.502451e+001 -1.250000e+001  1.257769e+001
      vertex -1.574469e+001 -1.250000e+001  2.168363e+001
    endloop
  endfacet
  facet normal  -0.000000e+000  1.000000e+000  0.000000e+000
    outer loop
      vertex -1.396383e+001 -1.250000e+001  0.000000e+000
      vertex -1.574469e+001 -1.250000e+001  2.168363e+001
      vertex -1.502451e+001 -1.250000e+001  2.257769e+001
    endloop
  endfacet
  facet normal  7.787678e-001  0.000000e+000 -6.273122e-001
    outer loop
      vertex  1.581703e+001 -1.250000e+001  1.431637e+001
      vertex  1.509684e+001 -1.450000e+001  1.342231e+001
      vertex  1.509684e+001 -1.250000e+001  1.342231e+001
    endloop
  endfacet
  facet normal  9.942488e-001  0.000000e+000  1.070952e-001
    outer loop
      vertex  1.509684e+001 -1.250000e+001  1.342231e+001
      vertex  1.509684e+001 -1.450000e+001  1.342231e+001
      vertex  1.521980e+001 -1.450000e+001  1.228086e+001
    endloop
  endfacet
  facet normal  9.942488e-001  -0.000000e+000  1.070952e-001
    outer loop
      vertex  1.509684e+001 -1.250000e+001  1.342231e+001
      vertex  1.521980e+001 -1.450000e+001  1.228086e+001
      vertex  1.521980e+001 -1.250000e+001  1.228086e+001
    endloop
  endfacet
  facet normal  7.787678e-001  0.000000e+000 -6.273122e-001
    outer loop
      vertex  1.509684e+001 -1.450000e+001  1.342231e+001
      vertex  1.581703e+001 -1.250000e+001  1.431637e+001
      vertex  1.581703e+001 -1.450000e+001  1.431637e+001
    endloop
  endfacet
  facet normal  1.070951e-001  0.000000e+000 -9.942489e-001
    outer loop
      vertex  1.581703e+001 -1.450000e+001  1.431637e+001
      vertex  1.581703e+001 -1.250000e+001  1.431637e+001
      vertex  1.695848e+001 -1.250000e+001  1.443932e+001
    endloop
  endfacet
  facet normal  1.070951e-001  0.000000e+000 -9.942489e-001
    outer loop
      vertex  1.581703e+001 -1.450000e+001  1.431637e+001
      vertex  1.695848e+001 -1.250000e+001  1.443932e+001
      vertex  1.695848e+001 -1.450000e+001  1.443932e+001
    endloop
  endfacet
  facet normal -6.273127e-001  0.000000e+000 -7.787675e-001
    outer loop
      vertex  1.695848e+001 -1.450000e+001  1.443932e+001
      vertex  1.695848e+001 -1.250000e+001  1.443932e+001
      vertex  1.785254e+001 -1.250000e+001  1.371914e+001
    endloop
  endfacet
  facet normal -6.273127e-001  -0.000000e+000 -7.787675e-001
    outer loop
      vertex  1.695848e+001 -1.450000e+001  1.443932e+001
      vertex  1.785254e+001 -1.250000e+001  1.371914e+001
      vertex  1.785254e+001 -1.450000e+001  1.371914e+001
    endloop
  endfacet
  facet normal -7.787678e-001  0.000000e+000  6.273122e-001
    outer loop
      vertex  1.725531e+001 -1.250000e+001  1.168363e+001
      vertex  1.797549e+001 -1.450000e+001  1.257769e+001
      vertex  1.797549e+001 -1.250000e+001  1.257769e+001
    endloop
  endfacet
  facet normal -9.942487e-001  -0.000000e+000 -1.070960e-001
    outer loop
      vertex  1.797549e+001 -1.250000e+001  1.257769e+001
      vertex  1.797549e+001 -1.450000e+001  1.257769e+001
      vertex  1.785254e+001 -1.450000e+001  1.371914e+001
    endloop
  endfacet
  facet normal -9.942487e-001  0.000000e+000 -1.070960e-001
    outer loop
      vertex  1.797549e+001 -1.250000e+001  1.257769e+001
      vertex  1.785254e+001 -1.450000e+001  1.371914e+001
      vertex  1.785254e+001 -1.250000e+001  1.371914e+001
    endloop
  endfacet
  facet normal -7.787678e-001  0.000000e+000  6.273122e-001
    outer loop
      vertex  1.797549e+001 -1.450000e+001  1.257769e+001
      vertex  1.725531e+001 -1.250000e+001  1.168363e+001
      vertex  1.725531e+001 -1.450000e+001  1.168363e+001
    endloop
  endfacet
  facet normal -1.070950e-001  0.000000e+000  9.942489e-001
    outer loop
      vertex  1.725531e+001 -1.450000e+001  1.168363e+001
      vertex  1.725531e+001 -1.250000e+001  1.168363e+001
      vertex  1.611386e+001 -1.250000e+001  1.156068e+001
    endloop
  endfacet
  facet normal -1.070950e-001  0.000000e+000  9.942489e-001
    outer loop
      vertex  1.725531e+001 -1.450000e+001  1.168363e+001
      vertex  1.611386e+001 -1.250000e+001  1.156068e+001
      vertex  1.611386e+001 -1.450000e+001  1.156068e+001
    endloop
  endfacet
  facet normal  6.273127e-001  -0.000000e+000  7.787675e-001
    outer loop
      vertex  1.611386e+001 -1.450000e+001  1.156068e+001
      vertex  1.611386e+001 -1.250000e+001  1.156068e+001
      vertex  1.521980e+001 -1.250000e+001  1.228086e+001
    endloop
  endfacet
  facet normal  6.273127e-001  0.000000e+000  7.787675e-001
    outer loop
      vertex  1.611386e+001 -1.450000e+001  1.156068e+001
      vertex  1.521980e+001 -1.250000e+001  1.228086e+001
      vertex  1.521980e+001 -1.450000e+001  1.228086e+001
    endloop
  endfacet
  facet normal  7.787678e-001  0.000000e+000 -6.273122e-001
    outer loop
      vertex -1.718297e+001 -1.250000e+001  1.431637e+001
      vertex -1.790316e+001 -1.450000e+001  1.342231e+001
      vertex -1.790316e+001 -1.250000e+001  1.342231e+001
    endloop
  endfacet
  facet normal  9.942487e-001  0.000000e+000  1.070960e-001
    outer loop
      vertex -1.790316e+001 -1.250000e+001  1.342231e+001
      vertex -1.790316e+001 -1.450000e+001  1.342231e+001
      vertex -1.778020e+001 -1.450000e+001  1.228086e+001
    endloop
  endfacet
  facet normal  9.942487e-001  -0.000000e+000  1.070960e-001
    outer loop
      vertex -1.790316e+001 -1.250000e+001  1.342231e+001
      vertex -1.778020e+001 -1.450000e+001  1.228086e+001
      vertex -1.778020e+001 -1.250000e+001  1.228086e+001
    endloop
  endfacet
  facet normal  7.787678e-001  0.000000e+000 -6.273122e-001
    outer loop
      vertex -1.790316e+001 -1.450000e+001  1.342231e+001
      vertex -1.718297e+001 -1.250000e+001  1.431637e+001
      vertex -1.718297e+001 -1.450000e+001  1.431637e+001
    endloop
  endfacet
  facet normal  1.070950e-001  0.000000e+000 -9.942489e-001
    outer loop
      vertex -1.718297e+001 -1.450000e+001  1.431637e+001
      vertex -1.718297e+001 -1.250000e+001  1.431637e+001
      vertex -1.604152e+001 -1.250000e+001  1.443932e+001
    endloop
  endfacet
  facet normal  1.070950e-001  0.000000e+000 -9.942489e-001
    outer loop
      vertex -1.718297e+001 -1.450000e+001  1.431637e+001
      vertex -1.604152e+001 -1.250000e+001  1.443932e+001
      vertex -1.604152e+001 -1.450000e+001  1.443932e+001
    endloop
  endfacet
  facet normal -6.273127e-001  0.000000e+000 -7.787675e-001
    outer loop
      vertex -1.604152e+001 -1.450000e+001  1.443932e+001
      vertex -1.604152e+001 -1.250000e+001  1.443932e+001
      vertex -1.514746e+001 -1.250000e+001  1.371914e+001
    endloop
  endfacet
  facet normal -6.273127e-001  -0.000000e+000 -7.787675e-001
    outer loop
      vertex -1.604152e+001 -1.450000e+001  1.443932e+001
      vertex -1.514746e+001 -1.250000e+001  1.371914e+001
      vertex -1.514746e+001 -1.450000e+001  1.371914e+001
    endloop
  endfacet
  facet normal -7.787678e-001  0.000000e+000  6.273122e-001
    outer loop
      vertex -1.574469e+001 -1.250000e+001  1.168363e+001
      vertex -1.502451e+001 -1.450000e+001  1.257769e+001
      vertex -1.502451e+001 -1.250000e+001  1.257769e+001
    endloop
  endfacet
  facet normal -9.942488e-001  -0.000000e+000 -1.070952e-001
    outer loop
      vertex -1.502451e+001 -1.250000e+001  1.257769e+001
      vertex -1.502451e+001 -1.450000e+001  1.257769e+001
      vertex -1.514746e+001 -1.450000e+001  1.371914e+001
    endloop
  endfacet
  facet normal -9.942488e-001  0.000000e+000 -1.070952e-001
    outer loop
      vertex -1.502451e+001 -1.250000e+001  1.257769e+001
      vertex -1.514746e+001 -1.450000e+001  1.371914e+001
      vertex -1.514746e+001 -1.250000e+001  1.371914e+001
    endloop
  endfacet
  facet normal -7.787678e-001  0.000000e+000  6.273122e-001
    outer loop
      vertex -1.502451e+001 -1.450000e+001  1.257769e+001
      vertex -1.574469e+001 -1.250000e+001  1.168363e+001
      vertex -1.574469e+001 -1.450000e+001  1.168363e+001
    endloop
  endfacet
  facet normal -1.070951e-001  0.000000e+000  9.942489e-001
    outer loop
      vertex -1.574469e+001 -1.450000e+001  1.168363e+001
      vertex -1.574469e+001 -1.250000e+001  1.168363e+001
      vertex -1.688614e+001 -1.250000e+001  1.156068e+001
    endloop
  endfacet
  facet normal -1.070951e-001  0.000000e+000  9.942489e-001
    outer loop
      vertex -1.574469e+001 -1.450000e+001  1.168363e+001
      vertex -1.688614e+001 -1.250000e+001  1.156068e+001
      vertex -1.688614e+001 -1.450000e+001  1.156068e+001
    endloop
  endfacet
  facet normal  6.273127e-001  -0.000000e+000  7.787675e-001
    outer loop
      vertex -1.688614e+001 -1.450000e+001  1.156068e+001
      vertex -1.688614e+001 -1.250000e+001  1.156068e+001
      vertex -1.778020e+001 -1.250000e+001  1.228086e+001
    endloop
  endfacet
  facet normal  6.273127e-001  0.000000e+000  7.787675e-001
    outer loop
      vertex -1.688614e+001 -1.450000e+001  1.156068e+001
      vertex -1.778020e+001 -1.250000e+001  1.228086e+001
      vertex -1.778020e+001 -1.450000e+001  1.228086e+001
    endloop
  endfacet
  facet normal  7.787675e-001  0.000000e+000 -6.273127e-001
    outer loop
      vertex  1.581703e+001 -1.250000e+001  2.431637e+001
      vertex  1.509684e+001 -1.450000e+001  2.342231e+001
      vertex  1.509684e+001 -1.250000e+001  2.342231e+001
    endloop
  endfacet
  facet normal  9.942489e-001  0.000000e+000  1.070950e-001
    outer loop
      vertex  1.509684e+001 -1.250000e+001  2.342231e+001
      vertex  1.509684e+001 -1.450000e+001  2.342231e+001
      vertex  1.521980e+001 -1.450000e+001  2.228086e+001
    endloop
  endfacet
  facet normal  9.942489e-001  -0.000000e+000  1.070950e-001
    outer loop
      vertex  1.509684e+001 -1.250000e+001  2.342231e+001
      vertex  1.521980e+001 -1.450000e+001  2.228086e+001
      vertex  1.521980e+001 -1.250000e+001  2.228086e+001
    endloop
  endfacet
  facet normal  7.787675e-001  0.000000e+000 -6.273127e-001
    outer loop
      vertex  1.509684e+001 -1.450000e+001  2.342231e+001
      vertex  1.581703e+001 -1.250000e+001  2.431637e+001
      vertex  1.581703e+001 -1.450000e+001  2.431637e+001
    endloop
  endfacet
  facet normal  1.070959e-001  0.000000e+000 -9.942487e-001
    outer loop
      vertex  1.581703e+001 -1.450000e+001  2.431637e+001
      vertex  1.581703e+001 -1.250000e+001  2.431637e+001
      vertex  1.695848e+001 -1.250000e+001  2.443933e+001
    endloop
  endfacet
  facet normal  1.070959e-001  0.000000e+000 -9.942487e-001
    outer loop
      vertex  1.581703e+001 -1.450000e+001  2.431637e+001
      vertex  1.695848e+001 -1.250000e+001  2.443933e+001
      vertex  1.695848e+001 -1.450000e+001  2.443933e+001
    endloop
  endfacet
  facet normal -6.273127e-001  0.000000e+000 -7.787675e-001
    outer loop
      vertex  1.695848e+001 -1.450000e+001  2.443933e+001
      vertex  1.695848e+001 -1.250000e+001  2.443933e+001
      vertex  1.785254e+001 -1.250000e+001  2.371914e+001
    endloop
  endfacet
  facet normal -6.273127e-001  -0.000000e+000 -7.787675e-001
    outer loop
      vertex  1.695848e+001 -1.450000e+001  2.443933e+001
      vertex  1.785254e+001 -1.250000e+001  2.371914e+001
      vertex  1.785254e+001 -1.450000e+001  2.371914e+001
    endloop
  endfacet
  facet normal -7.787675e-001  0.000000e+000  6.273127e-001
    outer loop
      vertex  1.725531e+001 -1.250000e+001  2.168363e+001
      vertex  1.797549e+001 -1.450000e+001  2.257769e+001
      vertex  1.797549e+001 -1.250000e+001  2.257769e+001
    endloop
  endfacet
  facet normal -9.942487e-001  -0.000000e+000 -1.070958e-001
    outer loop
      vertex  1.797549e+001 -1.250000e+001  2.257769e+001
      vertex  1.797549e+001 -1.450000e+001  2.257769e+001
      vertex  1.785254e+001 -1.450000e+001  2.371914e+001
    endloop
  endfacet
  facet normal -9.942487e-001  0.000000e+000 -1.070958e-001
    outer loop
      vertex  1.797549e+001 -1.250000e+001  2.257769e+001
      vertex  1.785254e+001 -1.450000e+001  2.371914e+001
      vertex  1.785254e+001 -1.250000e+001  2.371914e+001
    endloop
  endfacet
  facet normal -7.787675e-001  0.000000e+000  6.273127e-001
    outer loop
      vertex  1.797549e+001 -1.450000e+001  2.257769e+001
      vertex  1.725531e+001 -1.250000e+001  2.168363e+001
      vertex  1.725531e+001 -1.450000e+001  2.168363e+001
    endloop
  endfacet
  facet normal -1.070958e-001  0.000000e+000  9.942487e-001
    outer loop
      vertex  1.725531e+001 -1.450000e+001  2.168363e+001
      vertex  1.725531e+001 -1.250000e+001  2.168363e+001
      vertex  1.611386e+001 -1.250000e+001  2.156067e+001
    endloop
  endfacet
  facet normal -1.070958e-001  0.000000e+000  9.942487e-001
    outer loop
      vertex  1.725531e+001 -1.450000e+001  2.168363e+001
      vertex  1.611386e+001 -1.250000e+001  2.156067e+001
      vertex  1.611386e+001 -1.450000e+001  2.156067e+001
    endloop
  endfacet
  facet normal  6.273127e-001  -0.000000e+000  7.787675e-001
    outer loop
      vertex  1.611386e+001 -1.450000e+001  2.156067e+001
      vertex  1.611386e+001 -1.250000e+001  2.156067e+001
      vertex  1.521980e+001 -1.250000e+001  2.228086e+001
    endloop
  endfacet
  facet normal  6.273127e-001  0.000000e+000  7.787675e-001
    outer loop
      vertex  1.611386e+001 -1.450000e+001  2.156067e+001
      vertex  1.521980e+001 -1.250000e+001  2.228086e+001
      vertex  1.521980e+001 -1.450000e+001  2.228086e+001
    endloop
  endfacet
  facet normal  7.787675e-001  0.000000e+000 -6.273127e-001
    outer loop
      vertex -1.718297e+001 -1.250000e+001  2.431637e+001
      vertex -1.790316e+001 -1.450000e+001  2.342231e+001
      vertex -1.790316e+001 -1.250000e+001  2.342231e+001
    endloop
  endfacet
  facet normal  9.942487e-001  0.000000e+000  1.070958e-001
    outer loop
      vertex -1.790316e+001 -1.250000e+001  2.342231e+001
      vertex -1.790316e+001 -1.450000e+001  2.342231e+001
      vertex -1.778020e+001 -1.450000e+001  2.228086e+001
    endloop
  endfacet
  facet normal  9.942487e-001  -0.000000e+000  1.070958e-001
    outer loop
      vertex -1.790316e+001 -1.250000e+001  2.342231e+001
      vertex -1.778020e+001 -1.450000e+001  2.228086e+001
      vertex -1.778020e+001 -1.250000e+001  2.228086e+001
    endloop
  endfacet
  facet normal  7.787675e-001  0.000000e+000 -6.273127e-001
    outer loop
      vertex -1.790316e+001 -1.450000e+001  2.342231e+001
      vertex -1.718297e+001 -1.250000e+001  2.431637e+001
      vertex -1.718297e+001 -1.450000e+001  2.431637e+001
    endloop
  endfacet
  facet normal  1.070958e-001  0.000000e+000 -9.942487e-001
    outer loop
      vertex -1.718297e+001 -1.450000e+001  2.431637e+001
      vertex -1.718297e+001 -1.250000e+001  2.431637e+001
      vertex -1.604152e+001 -1.250000e+001  2.443933e+001
    endloop
  endfacet
  facet normal  1.070958e-001  0.000000e+000 -9.942487e-001
    outer loop
      vertex -1.718297e+001 -1.450000e+001  2.431637e+001
      vertex -1.604152e+001 -1.250000e+001  2.443933e+001
      vertex -1.604152e+001 -1.450000e+001  2.443933e+001
    endloop
  endfacet
  facet normal -6.273127e-001  0.000000e+000 -7.787675e-001
    outer loop
      vertex -1.604152e+001 -1.450000e+001  2.443933e+001
      vertex -1.604152e+001 -1.250000e+001  2.443933e+001
      vertex -1.514746e+001 -1.250000e+001  2.371914e+001
    endloop
  endfacet
  facet normal -6.273127e-001  -0.000000e+000 -7.787675e-001
    outer loop
      vertex -1.604152e+001 -1.450000e+001  2.443933e+001
      vertex -1.514746e+001 -1.250000e+001  2.371914e+001
      vertex -1.514746e+001 -1.450000e+001  2.371914e+001
    endloop
  endfacet
  facet normal -7.787675e-001  0.000000e+000  6.273127e-001
    outer loop
      vertex -1.574469e+001 -1.250000e+001  2.168363e+001
      vertex -1.502451e+001 -1.450000e+001  2.257769e+001
      vertex -1.502451e+001 -1.250000e+001  2.257769e+001
    endloop
  endfacet
  facet normal -9.942489e-001  -0.000000e+000 -1.070950e-001
    outer loop
      vertex -1.502451e+001 -1.250000e+001  2.257769e+001
      vertex -1.502451e+001 -1.450000e+001  2.257769e+001
      vertex -1.514746e+001 -1.450000e+001  2.371914e+001
    endloop
  endfacet
  facet normal -9.942489e-001  0.000000e+000 -1.070950e-001
    outer loop
      vertex -1.502451e+001 -1.250000e+001  2.257769e+001
      vertex -1.514746e+001 -1.450000e+001  2.371914e+001
      vertex -1.514746e+001 -1.250000e+001  2.371914e+001
    endloop
  endfacet
  facet normal -7.787675e-001  0.000000e+000  6.273127e-001
    outer loop
      vertex -1.502451e+001 -1.450000e+001  2.257769e+001
      vertex -1.574469e+001 -1.250000e+001  2.168363e+001
      vertex -1.574469e+001 -1.450000e+001  2.168363e+001
    endloop
  endfacet
  facet normal -1.070959e-001  0.000000e+000  9.942487e-001
    outer loop
      vertex -1.574469e+001 -1.450000e+001  2.168363e+001
      vertex -1.574469e+001 -1.250000e+001  2.168363e+001
      vertex -1.688614e+001 -1.250000e+001  2.156067e+001
    endloop
  endfacet
  facet normal -1.070959e-001  0.000000e+000  9.942487e-001
    outer loop
      vertex -1.574469e+001 -1.450000e+001  2.168363e+001
      vertex -1.688614e+001 -1.250000e+001  2.156067e+001
      vertex -1.688614e+001 -1.450000e+001  2.156067e+001
    endloop
  endfacet
  facet normal  6.273127e-001  -0.000000e+000  7.787675e-001
    outer loop
      vertex -1.688614e+001 -1.450000e+001  2.156067e+001
      vertex -1.688614e+001 -1.250000e+001  2.156067e+001
      vertex -1.778020e+001 -1.250000e+001  2.228086e+001
    endloop
  endfacet
  facet normal  6.273127e-001  0.000000e+000  7.787675e-001
    outer loop
      vertex -1.688614e+001 -1.450000e+001  2.156067e+001
      vertex -1.778020e+001 -1.250000e+001  2.228086e+001
      vertex -1.778020e+001 -1.450000e+001  2.228086e+001
    endloop
  endfacet
  facet normal -5.877852e-001  8.090170e-001  0.000000e+000
    outer loop
      vertex  1.158814e+000 -3.566462e+000  4.000000e+001
      vertex  3.033814e+000 -2.204195e+000  4.200000e+001
      vertex  3.033814e+000 -2.204195e+000  4.000000e+001
    endloop
  endfacet
  facet normal -9.510565e-001  3.090170e-001  0.000000e+000
    outer loop
      vertex  3.033814e+000 -2.204195e+000  4.000000e+001
      vertex  3.033814e+000 -2.204195e+000  4.200000e+001
      vertex  3.750000e+000  0.000000e+000  4.200000e+001
    endloop
  endfacet
  facet normal -9.510565e-001  3.090170e-001  0.000000e+000
    outer loop
      vertex  3.033814e+000 -2.204195e+000  4.000000e+001
      vertex  3.750000e+000  0.000000e+000  4.200000e+001
      vertex  3.750000e+000  0.000000e+000  4.000000e+001
    endloop
  endfacet
  facet normal -5.877852e-001  8.090170e-001  0.000000e+000
    outer loop
      vertex  3.033814e+000 -2.204195e+000  4.200000e+001
      vertex  1.158814e+000 -3.566462e+000  4.000000e+001
      vertex  1.158814e+000 -3.566462e+000  4.200000e+001
    endloop
  endfacet
  facet normal  0.000000e+000  1.000000e+000  0.000000e+000
    outer loop
      vertex  1.158814e+000 -3.566462e+000  4.200000e+001
      vertex  1.158814e+000 -3.566462e+000  4.000000e+001
      vertex -1.158814e+000 -3.566462e+000  4.000000e+001
    endloop
  endfacet
  facet normal  0.000000e+000  1.000000e+000  0.000000e+000
    outer loop
      vertex  1.158814e+000 -3.566462e+000  4.200000e+001
      vertex -1.158814e+000 -3.566462e+000  4.000000e+001
      vertex -1.158814e+000 -3.566462e+000  4.200000e+001
    endloop
  endfacet
  facet normal  5.877852e-001  8.090170e-001  0.000000e+000
    outer loop
      vertex -1.158814e+000 -3.566462e+000  4.200000e+001
      vertex -1.158814e+000 -3.566462e+000  4.000000e+001
      vertex -3.033814e+000 -2.204195e+000  4.000000e+001
    endloop
  endfacet
  facet normal  5.877852e-001  8.090170e-001  -0.000000e+000
    outer loop
      vertex -1.158814e+000 -3.566462e+000  4.200000e+001
      vertex -3.033814e+000 -2.204195e+000  4.000000e+001
      vertex -3.033814e+000 -2.204195e+000  4.200000e+001
    endloop
  endfacet
  facet normal  9.510565e-001  3.090170e-001  0.000000e+000
    outer loop
      vertex -3.033814e+000 -2.204195e+000  4.200000e+001
      vertex -3.033814e+000 -2.204195e+000  4.000000e+001
      vertex -3.750000e+000  2.124562e-015  4.000000e+001
    endloop
  endfacet
  facet normal  9.510565e-001  3.090170e-001  -0.000000e+000
    outer loop
      vertex -3.033814e+000 -2.204195e+000  4.200000e+001
      vertex -3.750000e+000  2.124562e-015  4.000000e+001
      vertex -3.750000e+000  2.124562e-015  4.200000e+001
    endloop
  endfacet
  facet normal  5.877852e-001 -8.090170e-001  0.000000e+000
    outer loop
      vertex -1.158814e+000  3.566462e+000  4.000000e+001
      vertex -3.033814e+000  2.204195e+000  4.200000e+001
      vertex -3.033814e+000  2.204195e+000  4.000000e+001
    endloop
  endfacet
  facet normal  9.510565e-001 -3.090170e-001  0.000000e+000
    outer loop
      vertex -3.033814e+000  2.204195e+000  4.000000e+001
      vertex -3.033814e+000  2.204195e+000  4.200000e+001
      vertex -3.750000e+000  2.124562e-015  4.200000e+001
    endloop
  endfacet
  facet normal  9.510565e-001 -3.090170e-001  0.000000e+000
    outer loop
      vertex -3.033814e+000  2.204195e+000  4.000000e+001
      vertex -3.750000e+000  2.124562e-015  4.200000e+001
      vertex -3.750000e+000  2.124562e-015  4.000000e+001
    endloop
  endfacet
  facet normal  5.877852e-001 -8.090170e-001  0.000000e+000
    outer loop
      vertex -3.033814e+000  2.204195e+000  4.200000e+001
      vertex -1.158814e+000  3.566462e+000  4.000000e+001
      vertex -1.158814e+000  3.566462e+000  4.200000e+001
    endloop
  endfacet
  facet normal  0.000000e+000 -1.000000e+000  0.000000e+000
    outer loop
      vertex -1.158814e+000  3.566462e+000  4.200000e+001
      vertex -1.158814e+000  3.566462e+000  4.000000e+001
      vertex  1.158814e+000  3.566462e+000  4.000000e+001
    endloop
  endfacet
  facet normal  0.000000e+000 -1.000000e+000  0.000000e+000
    outer loop
      vertex -1.158814e+000  3.566462e+000  4.200000e+001
      vertex  1.158814e+000  3.566462e+000  4.000000e+001
      vertex  1.158814e+000  3.566462e+000  4.200000e+001
    endloop
  endfacet
  facet normal -5.877852e-001 -8.090170e-001  -0.000000e+000
    outer loop
      vertex  1.158814e+000  3.566462e+000  4.200000e+001
      vertex  1.158814e+000  3.566462e+000  4.000000e+001
      vertex  3.033814e+000  2.204195e+000  4.000000e+001
    endloop
  endfacet
  facet normal -5.877852e-001 -8.090170e-001  0.000000e+000
    outer loop
      vertex  1.158814e+000  3.566462e+000  4.200000e+001
      vertex  3.033814e+000  2.204195e+000  4.000000e+001
      vertex  3.033814e+000  2.204195e+000  4.200000e+001
    endloop
  endfacet
  facet normal -9.510565e-001 -3.090170e-001  -0.000000e+000
    outer loop
      vertex  3.033814e+000  2.204195e+000  4.200000e+001
      vertex  3.033814e+000  2.204195e+000  4.000000e+001
      vertex  3.750000e+000  0.000000e+000  4.000000e+001
    endloop
  endfacet
  facet normal -9.510565e-001 -3.090170e-001  0.000000e+000
    outer loop
      vertex  3.033814e+000  2.204195e+000  4.200000e+001
      vertex  3.750000e+000  0.000000e+000  4.000000e+001
      vertex  3.750000e+000  0.000000e+000  4.200000e+001
    endloop
  endfacet
  facet normal  0.000000e+000  0.000000e+000 -1.000000e+000
    outer loop
      vertex  1.403617e+001  7.500000e+000  0.000000e+000
      vertex  1.403617e+001 -1.250000e+001  0.000000e+000
      vertex  1.249106e+001 -4.726520e-001  0.000000e+000
    endloop
  endfacet
  facet normal  0.000000e+000  0.000000e+000 -1.000000e+000
    outer loop
      vertex  1.403617e+001  7.500000e+000  0.000000e+000
      vertex  1.249106e+001 -4.726520e-001  0.000000e+000
      vertex  1.193117e+001  3.727902e+000  0.000000e+000
    endloop
  endfacet
  facet normal  0.000000e+000  0.000000e+000 -1.000000e+000
    outer loop
      vertex  1.403617e+001  7.500000e+000  0.000000e+000
      vertex  1.193117e+001  3.727902e+000  0.000000e+000
      vertex  1.000000e+001  7.500000e+000  0.000000e+000
    endloop
  endfacet
  facet normal  0.000000e+000  0.000000e+000 -1.000000e+000
    outer loop
      vertex  1.403617e+001 -1.250000e+001  0.000000e+000
      vertex -1.396383e+001 -1.250000e+001  0.000000e+000
      vertex  2.118852e+000 -1.231911e+001  0.000000e+000
    endloop
  endfacet
  facet normal  0.000000e+000  0.000000e+000 -1.000000e+000
    outer loop
      vertex  1.403617e+001 -1.250000e+001  0.000000e+000
      vertex  2.118852e+000 -1.231911e+001  0.000000e+000
      vertex  6.113031e+000 -1.090325e+001  0.000000e+000
    endloop
  endfacet
  facet normal  0.000000e+000  0.000000e+000 -1.000000e+000
    outer loop
      vertex  1.403617e+001 -1.250000e+001  0.000000e+000
      vertex  6.113031e+000 -1.090325e+001  0.000000e+000
      vertex  9.404628e+000 -8.234256e+000  0.000000e+000
    endloop
  endfacet
  facet normal  0.000000e+000  0.000000e+000 -9.999999e-001
    outer loop
      vertex  1.403617e+001 -1.250000e+001  0.000000e+000
      vertex  9.404628e+000 -8.234256e+000  0.000000e+000
      vertex  1.161533e+001 -4.618883e+000  0.000000e+000
    endloop
  endfacet
  facet normal  0.000000e+000  0.000000e+000 -1.000000e+000
    outer loop
      vertex  1.403617e+001 -1.250000e+001  0.000000e+000
      vertex  1.161533e+001 -4.618883e+000  0.000000e+000
      vertex  1.249106e+001 -4.726520e-001  0.000000e+000
    endloop
  endfacet
  facet normal  0.000000e+000  -0.000000e+000 -1.000000e+000
    outer loop
      vertex -1.396383e+001 -1.250000e+001  0.000000e+000
      vertex -1.249106e+001 -4.726520e-001  0.000000e+000
      vertex -1.161533e+001 -4.618883e+000  0.000000e+000
    endloop
  endfacet
  facet normal  0.000000e+000  -0.000000e+000 -1.000000e+000
    outer loop
      vertex -1.396383e+001 -1.250000e+001  0.000000e+000
      vertex -1.161533e+001 -4.618883e+000  0.000000e+000
      vertex -9.404628e+000 -8.234256e+000  0.000000e+000
    endloop
  endfacet
  facet normal  0.000000e+000  -0.000000e+000 -9.999999e-001
    outer loop
      vertex -1.396383e+001 -1.250000e+001  0.000000e+000
      vertex -9.404628e+000 -8.234256e+000  0.000000e+000
      vertex -6.113031e+000 -1.090325e+001  0.000000e+000
    endloop
  endfacet
  facet normal  0.000000e+000  -0.000000e+000 -1.000000e+000
    outer loop
      vertex -1.396383e+001 -1.250000e+001  0.000000e+000
      vertex -6.113031e+000 -1.090325e+001  0.000000e+000
      vertex -2.118852e+000 -1.231911e+001  0.000000e+000
    endloop
  endfacet
  facet normal  0.000000e+000  -0.000000e+000 -1.000000e+000
    outer loop
      vertex -1.396383e+001 -1.250000e+001  0.000000e+000
      vertex -2.118852e+000 -1.231911e+001  0.000000e+000
      vertex  2.118852e+000 -1.231911e+001  0.000000e+000
    endloop
  endfacet
  facet normal  -0.000000e+000  0.000000e+000 -1.000000e+000
    outer loop
      vertex -1.396383e+001  7.500000e+000  0.000000e+000
      vertex -1.000000e+001  7.500000e+000  0.000000e+000
      vertex -1.193117e+001  3.727902e+000  0.000000e+000
    endloop
  endfacet
  facet normal  -0.000000e+000  0.000000e+000 -9.999999e-001
    outer loop
      vertex -1.396383e+001  7.500000e+000  0.000000e+000
      vertex -1.193117e+001  3.727902e+000  0.000000e+000
      vertex -1.249106e+001 -4.726520e-001  0.000000e+000
    endloop
  endfacet
  facet normal  -0.000000e+000  0.000000e+000 -1.000000e+000
    outer loop
      vertex -1.396383e+001  7.500000e+000  0.000000e+000
      vertex -1.249106e+001 -4.726520e-001  0.000000e+000
      vertex -1.396383e+001 -1.250000e+001  0.000000e+000
    endloop
  endfacet
  facet normal  0.000000e+000  0.000000e+000 -1.000000e+000
    outer loop
      vertex -2.046383e+001 -1.450000e+001  0.000000e+000
      vertex -2.046383e+001 -1.250000e+001  0.000000e+000
      vertex -1.396383e+001 -1.250000e+001  0.000000e+000
    endloop
  endfacet
  facet normal  0.000000e+000  -0.000000e+000 -1.000000e+000
    outer loop
      vertex -2.046383e+001 -1.450000e+001  0.000000e+000
      vertex -1.396383e+001 -1.250000e+001  0.000000e+000
      vertex  1.403617e+001 -1.250000e+001  0.000000e+000
    endloop
  endfacet
  facet normal  0.000000e+000  -0.000000e+000 -1.000000e+000
    outer loop
      vertex -2.046383e+001 -1.450000e+001  0.000000e+000
      vertex  1.403617e+001 -1.250000e+001  0.000000e+000
      vertex  2.053617e+001 -1.250000e+001  0.000000e+000
    endloop
  endfacet
  facet normal  0.000000e+000  -0.000000e+000 -9.999999e-001
    outer loop
      vertex -2.046383e+001 -1.450000e+001  0.000000e+000
      vertex  2.053617e+001 -1.250000e+001  0.000000e+000
      vertex  2.053617e+001 -1.450000e+001  0.000000e+000
    endloop
  endfacet
  facet normal  1.000000e+000  -0.000000e+000  0.000000e+000
    outer loop
      vertex  1.403617e+001  1.150000e+001  4.200000e+001
      vertex  1.403617e+001 -1.250000e+001  4.200000e+001
      vertex  1.403617e+001  1.150000e+001  4.000000e+001
    endloop
  endfacet
  facet normal  1.000000e+000  0.000000e+000  0.000000e+000
    outer loop
      vertex  1.403617e+001  1.150000e+001  4.000000e+001
      vertex  1.403617e+001 -1.250000e+001  4.200000e+001
      vertex  1.403617e+001  7.500000e+000  4.000000e+001
    endloop
  endfacet
  facet normal  1.000000e+000  0.000000e+000  0.000000e+000
    outer loop
      vertex  1.403617e+001 -1.250000e+001  4.200000e+001
      vertex  1.403617e+001 -1.250000e+001  0.000000e+000
      vertex  1.403617e+001  7.500000e+000  4.000000e+001
    endloop
  endfacet
  facet normal  1.000000e+000  0.000000e+000  0.000000e+000
    outer loop
      vertex  1.403617e+001  7.500000e+000  4.000000e+001
      vertex  1.403617e+001 -1.250000e+001  0.000000e+000
      vertex  1.403617e+001  7.500000e+000  0.000000e+000
    endloop
  endfacet
  facet normal -1.000000e+000  0.000000e+000  0.000000e+000
    outer loop
      vertex -1.396383e+001 -1.250000e+001  0.000000e+000
      vertex -1.396383e+001 -1.250000e+001  4.200000e+001
      vertex -1.396383e+001  7.500000e+000  0.000000e+000
    endloop
  endfacet
  facet normal -1.000000e+000  0.000000e+000  0.000000e+000
    outer loop
      vertex -1.396383e+001  7.500000e+000  0.000000e+000
      vertex -1.396383e+001 -1.250000e+001  4.200000e+001
      vertex -1.396383e+001  7.500000e+000  4.000000e+001
    endloop
  endfacet
  facet normal -1.000000e+000  -0.000000e+000  0.000000e+000
    outer loop
      vertex -1.396383e+001 -1.250000e+001  4.200000e+001
      vertex -1.396383e+001  1.150000e+001  4.200000e+001
      vertex -1.396383e+001  7.500000e+000  4.000000e+001
    endloop
  endfacet
  facet normal -1.000000e+000  0.000000e+000  0.000000e+000
    outer loop
      vertex -1.396383e+001  7.500000e+000  4.000000e+001
      vertex -1.396383e+001  1.150000e+001  4.200000e+001
      vertex -1.396383e+001  1.150000e+001  4.000000e+001
    endloop
  endfacet
  facet normal -1.000000e+000  0.000000e+000  0.000000e+000
    outer loop
      vertex -2.046383e+001 -1.450000e+001  0.000000e+000
      vertex -2.046383e+001 -1.450000e+001  4.200000e+001
      vertex -2.046383e+001 -1.250000e+001  0.000000e+000
    endloop
  endfacet
  facet normal -1.000000e+000  0.000000e+000  0.000000e+000
    outer loop
      vertex -2.046383e+001 -1.250000e+001  0.000000e+000
      vertex -2.046383e+001 -1.450000e+001  4.200000e+001
      vertex -2.046383e+001 -1.250000e+001  4.200000e+001
    endloop
  endfacet
  facet normal  1.000000e+000  0.000000e+000  0.000000e+000
    outer loop
      vertex  2.053617e+001 -1.250000e+001  0.000000e+000
      vertex  2.053617e+001 -1.250000e+001  4.200000e+001
      vertex  2.053617e+001 -1.450000e+001  0.000000e+000
    endloop
  endfacet
  facet normal  1.000000e+000  0.000000e+000  0.000000e+000
    outer loop
      vertex  2.053617e+001 -1.450000e+001  0.000000e+000
      vertex  2.053617e+001 -1.250000e+001  4.200000e+001
      vertex  2.053617e+001 -1.450000e+001  4.200000e+001
    endloop
  endfacet
  facet normal  0.000000e+000  1.000000e+000  0.000000e+000
    outer loop
      vertex  1.000000e+001  7.500000e+000  0.000000e+000
      vertex  1.000000e+001  7.500000e+000  4.000000e+001
      vertex  1.403617e+001  7.500000e+000  0.000000e+000
    endloop
  endfacet
  facet normal  0.000000e+000  1.000000e+000  -0.000000e+000
    outer loop
      vertex  1.403617e+001  7.500000e+000  0.000000e+000
      vertex  1.000000e+001  7.500000e+000  4.000000e+001
      vertex  1.403617e+001  7.500000e+000  4.000000e+001
    endloop
  endfacet
  facet normal  0.000000e+000  9.999999e-001  0.000000e+000
    outer loop
      vertex -1.396383e+001  7.500000e+000  0.000000e+000
      vertex -1.396383e+001  7.500000e+000  4.000000e+001
      vertex -1.000000e+001  7.500000e+000  0.000000e+000
    endloop
  endfacet
  facet normal  0.000000e+000  9.999999e-001  -0.000000e+000
    outer loop
      vertex -1.000000e+001  7.500000e+000  0.000000e+000
      vertex -1.396383e+001  7.500000e+000  4.000000e+001
      vertex -1.000000e+001  7.500000e+000  4.000000e+001
    endloop
  endfacet
  facet normal -3.341103e-001  9.425340e-001  0.000000e+000
    outer loop
      vertex  2.118852e+000 -1.231911e+001  0.000000e+000
      vertex  6.113031e+000 -1.090325e+001  4.000000e+001
      vertex  6.113031e+000 -1.090325e+001  0.000000e+000
    endloop
  endfacet
  facet normal -6.298208e-001  7.767405e-001  0.000000e+000
    outer loop
      vertex  6.113031e+000 -1.090325e+001  0.000000e+000
      vertex  6.113031e+000 -1.090325e+001  4.000000e+001
      vertex  9.404628e+000 -8.234256e+000  4.000000e+001
    endloop
  endfacet
  facet normal -6.298208e-001  7.767405e-001  0.000000e+000
    outer loop
      vertex  6.113031e+000 -1.090325e+001  0.000000e+000
      vertex  9.404628e+000 -8.234256e+000  4.000000e+001
      vertex  9.404628e+000 -8.234256e+000  0.000000e+000
    endloop
  endfacet
  facet normal -8.531443e-001  5.216749e-001  0.000000e+000
    outer loop
      vertex  9.404628e+000 -8.234256e+000  0.000000e+000
      vertex  9.404628e+000 -8.234256e+000  4.000000e+001
      vertex  1.161533e+001 -4.618883e+000  4.000000e+001
    endloop
  endfacet
  facet normal -8.531443e-001  5.216749e-001  0.000000e+000
    outer loop
      vertex  9.404628e+000 -8.234256e+000  0.000000e+000
      vertex  1.161533e+001 -4.618883e+000  4.000000e+001
      vertex  1.161533e+001 -4.618883e+000  0.000000e+000
    endloop
  endfacet
  facet normal -9.784145e-001  2.066519e-001  0.000000e+000
    outer loop
      vertex  1.161533e+001 -4.618883e+000  0.000000e+000
      vertex  1.161533e+001 -4.618883e+000  4.000000e+001
      vertex  1.249106e+001 -4.726520e-001  4.000000e+001
    endloop
  endfacet
  facet normal -9.784145e-001  2.066519e-001  0.000000e+000
    outer loop
      vertex  1.161533e+001 -4.618883e+000  0.000000e+000
      vertex  1.249106e+001 -4.726520e-001  4.000000e+001
      vertex  1.249106e+001 -4.726520e-001  0.000000e+000
    endloop
  endfacet
  facet normal -9.912335e-001 -1.321219e-001  0.000000e+000
    outer loop
      vertex  1.249106e+001 -4.726520e-001  0.000000e+000
      vertex  1.249106e+001 -4.726520e-001  4.000000e+001
      vertex  1.193117e+001  3.727902e+000  4.000000e+001
    endloop
  endfacet
  facet normal -9.912335e-001 -1.321219e-001  -0.000000e+000
    outer loop
      vertex  1.249106e+001 -4.726520e-001  0.000000e+000
      vertex  1.193117e+001  3.727902e+000  4.000000e+001
      vertex  1.193117e+001  3.727902e+000  0.000000e+000
    endloop
  endfacet
  facet normal -8.901278e-001 -4.557109e-001  0.000000e+000
    outer loop
      vertex  1.193117e+001  3.727902e+000  0.000000e+000
      vertex  1.193117e+001  3.727902e+000  4.000000e+001
      vertex  1.000000e+001  7.500000e+000  4.000000e+001
    endloop
  endfacet
  facet normal -8.901278e-001 -4.557109e-001  -0.000000e+000
    outer loop
      vertex  1.193117e+001  3.727902e+000  0.000000e+000
      vertex  1.000000e+001  7.500000e+000  4.000000e+001
      vertex  1.000000e+001  7.500000e+000  0.000000e+000
    endloop
  endfacet
  facet normal -3.341103e-001  9.425340e-001  0.000000e+000
    outer loop
      vertex  6.113031e+000 -1.090325e+001  4.000000e+001
      vertex  2.118852e+000 -1.231911e+001  0.000000e+000
      vertex  2.118852e+000 -1.231911e+001  4.000000e+001
    endloop
  endfacet
  facet normal  0.000000e+000  1.000000e+000  0.000000e+000
    outer loop
      vertex  2.118852e+000 -1.231911e+001  4.000000e+001
      vertex  2.118852e+000 -1.231911e+001  0.000000e+000
      vertex -2.118852e+000 -1.231911e+001  0.000000e+000
    endloop
  endfacet
  facet normal  0.000000e+000  1.000000e+000  0.000000e+000
    outer loop
      vertex  2.118852e+000 -1.231911e+001  4.000000e+001
      vertex -2.118852e+000 -1.231911e+001  0.000000e+000
      vertex -2.118852e+000 -1.231911e+001  4.000000e+001
    endloop
  endfacet
  facet normal  3.341103e-001  9.425340e-001  0.000000e+000
    outer loop
      vertex -2.118852e+000 -1.231911e+001  4.000000e+001
      vertex -2.118852e+000 -1.231911e+001  0.000000e+000
      vertex -6.113031e+000 -1.090325e+001  0.000000e+000
    endloop
  endfacet
  facet normal  3.341103e-001  9.425340e-001  -0.000000e+000
    outer loop
      vertex -2.118852e+000 -1.231911e+001  4.000000e+001
      vertex -6.113031e+000 -1.090325e+001  0.000000e+000
      vertex -6.113031e+000 -1.090325e+001  4.000000e+001
    endloop
  endfacet
  facet normal  6.298208e-001  7.767405e-001  0.000000e+000
    outer loop
      vertex -6.113031e+000 -1.090325e+001  4.000000e+001
      vertex -6.113031e+000 -1.090325e+001  0.000000e+000
      vertex -9.404628e+000 -8.234256e+000  0.000000e+000
    endloop
  endfacet
  facet normal  6.298208e-001  7.767405e-001  -0.000000e+000
    outer loop
      vertex -6.113031e+000 -1.090325e+001  4.000000e+001
      vertex -9.404628e+000 -8.234256e+000  0.000000e+000
      vertex -9.404628e+000 -8.234256e+000  4.000000e+001
    endloop
  endfacet
  facet normal  8.531443e-001  5.216749e-001  0.000000e+000
    outer loop
      vertex -9.404628e+000 -8.234256e+000  4.000000e+001
      vertex -9.404628e+000 -8.234256e+000  0.000000e+000
      vertex -1.161533e+001 -4.618883e+000  0.000000e+000
    endloop
  endfacet
  facet normal  8.531443e-001  5.216749e-001  -0.000000e+000
    outer loop
      vertex -9.404628e+000 -8.234256e+000  4.000000e+001
      vertex -1.161533e+001 -4.618883e+000  0.000000e+000
      vertex -1.161533e+001 -4.618883e+000  4.000000e+001
    endloop
  endfacet
  facet normal  9.784145e-001  2.066519e-001  0.000000e+000
    outer loop
      vertex -1.161533e+001 -4.618883e+000  4.000000e+001
      vertex -1.161533e+001 -4.618883e+000  0.000000e+000
      vertex -1.249106e+001 -4.726520e-001  0.000000e+000
    endloop
  endfacet
  facet normal  9.784145e-001  2.066519e-001  -0.000000e+000
    outer loop
      vertex -1.161533e+001 -4.618883e+000  4.000000e+001
      vertex -1.249106e+001 -4.726520e-001  0.000000e+000
      vertex -1.249106e+001 -4.726520e-001  4.000000e+001
    endloop
  endfacet
  facet normal  9.912335e-001 -1.321219e-001  0.000000e+000
    outer loop
      vertex -1.249106e+001 -4.726520e-001  4.000000e+001
      vertex -1.249106e+001 -4.726520e-001  0.000000e+000
      vertex -1.193117e+001  3.727902e+000  0.000000e+000
    endloop
  endfacet
  facet normal  9.912335e-001 -1.321219e-001  0.000000e+000
    outer loop
      vertex -1.249106e+001 -4.726520e-001  4.000000e+001
      vertex -1.193117e+001  3.727902e+000  0.000000e+000
      vertex -1.193117e+001  3.727902e+000  4.000000e+001
    endloop
  endfacet
  facet normal  8.901278e-001 -4.557109e-001  0.000000e+000
    outer loop
      vertex -1.193117e+001  3.727902e+000  4.000000e+001
      vertex -1.193117e+001  3.727902e+000  0.000000e+000
      vertex -1.000000e+001  7.500000e+000  0.000000e+000
    endloop
  endfacet
  facet normal  8.901278e-001 -4.557109e-001  0.000000e+000
    outer loop
      vertex -1.193117e+001  3.727902e+000  4.000000e+001
      vertex -1.000000e+001  7.500000e+000  0.000000e+000
      vertex -1.000000e+001  7.500000e+000  4.000000e+001
    endloop
  endfacet
  facet normal  0.000000e+000  1.000000e+000  -0.000000e+000
    outer loop
      vertex  1.403617e+001  1.150000e+001  4.200000e+001
      vertex  1.403617e+001  1.150000e+001  4.000000e+001
      vertex -1.396383e+001  1.150000e+001  4.200000e+001
    endloop
  endfacet
  facet normal  0.000000e+000  1.000000e+000  0.000000e+000
    outer loop
      vertex -1.396383e+001  1.150000e+001  4.200000e+001
      vertex  1.403617e+001  1.150000e+001  4.000000e+001
      vertex -1.396383e+001  1.150000e+001  4.000000e+001
    endloop
  endfacet
endsolid CATIA STL
